<?xml version="1.0" encoding="UTF-8" standalone="no"?>
<!-- Created with Inkscape (http://www.inkscape.org/) -->

<svg
   xmlns:dc="http://purl.org/dc/elements/1.1/"
   xmlns:cc="http://creativecommons.org/ns#"
   xmlns:rdf="http://www.w3.org/1999/02/22-rdf-syntax-ns#"
   xmlns:svg="http://www.w3.org/2000/svg"
   xmlns="http://www.w3.org/2000/svg"
   xmlns:sodipodi="http://sodipodi.sourceforge.net/DTD/sodipodi-0.dtd"
   xmlns:inkscape="http://www.inkscape.org/namespaces/inkscape"
   width="204.76759mm"
   height="54.806824mm"
   viewBox="0 0 204.76759 54.806824"
   version="1.1"
   id="svg8"
   inkscape:version="0.92.1 r15371"
   sodipodi:docname="be-a-star-logo3.svg">
  <defs
     id="defs2" />
  <sodipodi:namedview
     id="base"
     pagecolor="#ffffff"
     bordercolor="#666666"
     borderopacity="1.0"
     inkscape:pageopacity="0.0"
     inkscape:pageshadow="2"
     inkscape:zoom="1.4"
     inkscape:cx="428.57144"
     inkscape:cy="162.11577"
     inkscape:document-units="mm"
     inkscape:current-layer="layer1"
     showgrid="false"
     inkscape:window-width="1920"
     inkscape:window-height="1027"
     inkscape:window-x="-8"
     inkscape:window-y="-8"
     inkscape:window-maximized="1"
     fit-margin-top="0"
     fit-margin-left="0"
     fit-margin-right="0"
     fit-margin-bottom="0" />
  <metadata
     id="metadata5">
    <rdf:RDF>
      <cc:Work
         rdf:about="">
        <dc:format>image/svg+xml</dc:format>
        <dc:type
           rdf:resource="http://purl.org/dc/dcmitype/StillImage" />
        <dc:title></dc:title>
      </cc:Work>
    </rdf:RDF>
  </metadata>
  <g
     inkscape:label="Layer 1"
     inkscape:groupmode="layer"
     id="layer1"
     transform="translate(2.8673029e-6,-1.4151748)">
    <path
       style="fill:#000000;stroke-width:0.11176538"
       inkscape:connector-curvature="0"
       d="m 84.882456,1.4793162 c 4.257142,-0.4012376 8.650638,1.0964184 11.762188,4.0313774 3.079137,2.8243112 4.897556,6.9585124 4.896436,11.1363024 0.0447,3.982201 -1.555768,7.947637 -4.348786,10.78536 -1.673127,1.72454 -3.764259,3.040018 -6.037567,3.814553 -3.865964,1.319949 -8.265049,1.014829 -11.895188,-0.869535 C 75.577987,28.507539 72.724616,25.085283 71.561137,21.1232 70.395425,17.258353 70.840253,12.938621 72.78944,9.4012466 74.582158,6.1030502 77.624411,3.5022697 81.174079,2.2750857 82.371087,1.8626716 83.618388,1.5776696 84.882456,1.4793162 Z"
       id="path12" />
    <path
       style="fill:#000000;stroke-width:0.11176538"
       inkscape:connector-curvature="0"
       d="m 190.52421,2.4449691 c 0.26936,2.9159589 0.47501,5.8386237 0.7276,8.7556999 0.0592,0.49065 0.0335,0.990242 0.13859,1.475303 0.0257,0.110648 0.0548,0.221296 0.0883,0.331944 -0.38224,0.689592 -0.68736,1.421655 -1.10424,2.09113 -0.63595,-1.131066 -1.15901,-2.326955 -1.83631,-3.43455 0.30959,1.269655 0.83377,2.477838 1.15789,3.74414 -2.54713,-0.718651 -5.0395,-1.63401 -7.58999,-2.339249 0.86619,0.532003 1.80502,0.936593 2.70361,1.413832 1.44736,0.757769 2.94055,1.433949 4.35885,2.246484 -1.13889,0.649357 -2.34707,1.171301 -3.46361,1.854188 1.26407,-0.300649 2.46331,-0.829299 3.72402,-1.151184 -0.14306,0.605768 -0.36659,1.186949 -0.52641,1.788246 -0.0615,-0.06929 -0.12071,-0.138589 -0.17771,-0.206766 -0.0291,0.02906 -0.0872,0.08494 -0.11624,0.114001 -1.2093,1.075183 -2.4633,2.100072 -3.68937,3.156255 -0.27383,0.164295 -0.0324,0.477238 -0.0693,0.722004 -0.0179,0.489532 -0.64488,0.793534 -1.05059,0.534238 -0.48059,-0.241413 -0.47836,-1.017065 0.008,-1.251772 0.266,-0.195589 0.58454,-0.03018 0.85836,0.057 1.24395,-1.475304 2.52143,-2.924901 3.73296,-4.427027 -1.13665,0.334178 -2.25207,0.735416 -3.3809,1.094183 -0.0637,0.354296 -0.27941,0.784593 -0.70636,0.72871 -0.61806,0.01118 -0.76559,-0.977947 -0.19111,-1.16683 0.34423,-0.245884 0.65047,0.321884 0.98353,0.108412 0.7723,-0.426944 1.58707,-0.779005 2.33254,-1.254008 -3.68155,-0.315178 -7.36533,-0.621415 -11.05024,-0.89524 3.43567,-0.314061 6.87916,-0.539827 10.31371,-0.870653 -0.64935,-0.447061 -1.39707,-0.724239 -2.08554,-1.105359 -1.21713,-0.615828 -2.4309,-1.237243 -3.65026,-1.847482 -0.14418,-0.06482 -0.26488,-0.166531 -0.36659,-0.282767 0.84607,0.191119 1.6586,0.514121 2.49237,0.755534 1.67201,0.523062 3.33731,1.074065 5.01715,1.575892 -1.12771,-1.364655 -2.28225,-2.708075 -3.43455,-4.051495 -0.31183,0.09612 -0.71307,0.217942 -0.98242,-0.03576 -0.34647,-0.263766 -0.33194,-0.8561227 0.0156,-1.1131831 0.31182,-0.2458839 0.82706,-0.1765894 1.04277,0.1665304 0.18776,0.2671193 0.0715,0.6068857 0.0134,0.8963587 1.48313,1.248419 2.93719,2.533721 4.44491,3.751964 -0.33641,-1.142243 -0.73095,-2.266602 -1.09754,-3.399903 -0.32523,-0.05924 -0.75218,-0.192237 -0.75441,-0.59571 -0.0995,-0.4783558 0.51412,-0.8684168 0.90753,-0.5923564 0.40459,0.2090012 0.31853,0.7588874 0.0771,1.0617714 0.41353,0.820358 0.8293,1.639598 1.27301,2.443191 0.14641,-0.603533 0.10506,-1.230537 0.19447,-1.841894 0.22577,-3.0020178 0.5063,-6.0018006 0.71753,-9.0038189 z"
       id="path14" />
    <path
       style="fill:#494949;stroke-width:0.11176538"
       inkscape:connector-curvature="0"
       d="m 193.64023,8.3305342 c 0.33418,-0.5901212 0.54989,-1.2540075 0.97795,-1.7848931 0.019,0.3688257 -0.13859,0.7108278 -0.24141,1.0561829 -0.44148,1.3847732 -0.87736,2.771782 -1.3166,4.156554 -0.20677,0.696299 -0.47389,1.375833 -0.61247,2.090013 -0.0984,0.102824 -0.22018,0.182178 -0.32077,0.278296 0.55547,-1.976012 1.2663,-3.9062 1.80836,-5.885565 -0.86394,1.5647154 -1.60942,3.193137 -2.4566,4.766794 -0.0335,-0.110648 -0.0626,-0.221296 -0.0883,-0.331944 0.82482,-1.406008 1.48647,-2.9047818 2.24983,-4.3454378 z"
       id="path16" />
    <path
       style="fill:#ffffff;stroke-width:0.11176538"
       inkscape:connector-curvature="0"
       d="m 89.982307,7.1290564 c 0.857242,-0.3297079 1.942483,-0.1151184 2.522547,0.6247685 0.487297,0.5923565 0.520825,1.4294794 0.327473,2.1425425 -0.842713,3.2087846 -1.686541,6.4175686 -2.532606,9.6252346 -0.04247,0.160942 -0.05924,0.325238 -0.07488,0.49065 0.725358,0.130766 1.506599,-0.02347 2.101188,-0.467179 0.709711,-0.525297 1.220481,-1.262949 1.697718,-1.995012 0.250354,0.112883 0.475002,0.274943 0.680653,0.45712 -0.501829,0.946653 -1.078538,1.876541 -1.860894,2.618663 -0.52418,0.50965 -1.232773,0.823711 -1.962601,0.862829 -0.365475,0.01788 -0.729828,-0.0089 -1.094185,-0.0034 -0.383353,1.332243 -0.697415,2.684605 -1.069593,4.020201 -0.651591,-0.392297 -1.289774,-0.808064 -1.925718,-1.224949 -0.03241,-0.312943 0.134118,-0.613592 0.195589,-0.918711 0.20453,-0.840476 0.502945,-1.661952 0.639299,-2.516957 -1.094185,-0.444826 -2.117955,-1.041653 -3.196489,-1.514421 -0.79577,1.160125 -1.715599,2.313544 -3.008725,2.940548 -0.991359,0.49512 -2.15372,0.603533 -3.232257,0.377767 -1.023769,-0.217943 -1.963716,-0.912006 -2.358249,-1.896659 -0.429177,-1.077418 -0.274942,-2.373897 0.412414,-3.311608 0.571123,-0.789064 1.471952,-1.296479 2.423076,-1.468598 1.246183,-0.213471 2.533721,0 3.699433,0.463827 0.395648,0.139707 0.763357,0.36212 1.180241,0.434767 1.281949,-2.134719 2.542665,-4.281732 3.815673,-6.420921 0.434765,-0.7197691 0.82818,-1.4663621 1.306536,-2.1593073 0.342003,-0.4761205 0.753298,-0.9455352 1.314359,-1.1612424 z"
       id="path18" />
    <path
       style="fill:#000000;stroke-width:0.11176538"
       inkscape:connector-curvature="0"
       d="m 34.121971,7.4688231 c 1.445125,-0.036882 2.892486,-0.012294 4.336495,0.031294 3.166315,0.010059 6.332627,0.045824 9.500057,0.062589 0.359887,0.00894 0.735417,-0.038 1.078538,0.099471 -0.02905,0.410179 -0.09165,0.8158873 -0.141943,1.2227133 0.410181,0.00671 0.81924,0.00671 1.229421,0.015648 C 49.404769,14.938104 48.670471,20.97567 47.980878,27.016589 44.931917,26.917119 41.888545,26.686881 38.840703,26.539351 38.778113,26.23982 38.725585,25.938053 38.664114,25.63964 38.247229,25.62287 37.829226,25.61393 37.419049,25.536816 36.384102,20.060312 35.381565,14.575984 34.360029,9.0961278 34.272859,8.5551834 34.110794,8.0209448 34.121971,7.4688231 Z"
       id="path20" />
    <path
       style="fill:#000000;stroke-width:0.11176538"
       inkscape:connector-curvature="0"
       d="m 52.233549,7.4978822 c 0.803596,-0.1095301 1.620599,-0.012294 2.430899,-0.038 4.022435,0.073765 8.048226,0.068177 12.072895,0.1084125 0.143061,0.014529 0.286122,0.043589 0.425828,0.088295 -0.03016,0.4112966 -0.07824,0.8225933 -0.127414,1.2327722 0.404593,0 0.809182,0.00447 1.213774,0.00782 C 67.537583,14.940338 66.809992,20.981257 66.102518,27.024411 63.055791,26.90594 60.013538,26.692468 56.969051,26.539349 56.910931,26.240936 56.851696,25.94364 56.805872,25.645226 56.383398,25.618401 55.956455,25.617286 55.540689,25.531225 54.507976,19.951897 53.469677,14.372569 52.435845,8.7932413 52.358726,8.3629447 52.249197,7.9360009 52.233549,7.4978806 Z"
       id="path22" />
    <path
       style="fill:#000000;stroke-width:0.11176538"
       inkscape:connector-curvature="0"
       d="m 102.86103,7.4889409 c 0.80695,-0.09053 1.62284,-0.00782 2.43314,-0.029059 4.02243,0.073765 8.04822,0.067059 12.07178,0.1095301 0.14194,0.012294 0.28053,0.042471 0.418,0.09053 -0.028,0.410179 -0.0849,0.8170049 -0.13859,1.2238309 0.40906,0.00894 0.81812,0.00671 1.2283,0.018999 -0.72089,6.0386841 -1.44848,12.0762501 -2.14813,18.1171691 -3.04784,-0.10953 -6.0901,-0.32859 -9.1357,-0.481709 -0.0615,-0.298413 -0.11847,-0.596827 -0.16877,-0.897476 -0.42135,-0.019 -0.84494,-0.02571 -1.25848,-0.108412 -1.02265,-5.478739 -2.03524,-10.959714 -3.05231,-16.4384533 -0.0861,-0.5342383 -0.24253,-1.0606533 -0.24924,-1.6049498 z"
       id="path24" />
    <path
       style="fill:#000000;stroke-width:0.11176538"
       inkscape:connector-curvature="0"
       d="m 121.00056,7.4587643 c 1.39483,-0.010059 2.79301,-0.015647 4.18784,0.040235 3.16632,0.010059 6.33263,0.043589 9.50006,0.063706 0.40012,0.00335 0.80695,-0.021235 1.20372,0.064824 -0.002,0.4213555 -0.0615,0.839358 -0.0838,1.259596 0.39453,0.00335 0.79018,0.00671 1.18695,0.010059 -0.70412,6.0442717 -1.43283,12.0863087 -2.14701,18.1294627 -3.04449,-0.122942 -6.08451,-0.336414 -9.12676,-0.485062 -0.0592,-0.299531 -0.11959,-0.599063 -0.16989,-0.900829 -0.41688,-0.019 -0.836,-0.02683 -1.24618,-0.100589 -1.11207,-5.827447 -2.16378,-11.666071 -3.26355,-17.4946351 -0.0425,-0.1933541 -0.0481,-0.3900612 -0.0414,-0.5867682 z"
       id="path26" />
    <path
       style="fill:#000000;stroke-width:0.11176538"
       inkscape:connector-curvature="0"
       d="m 138.99702,7.4609996 c 1.39483,-0.01453 2.7919,-0.015647 4.18561,0.038 3.16632,0.010059 6.33263,0.043589 9.50006,0.063706 0.40235,0.00335 0.81142,-0.021235 1.21042,0.061471 0.001,0.4235908 -0.0581,0.842711 -0.0872,1.2640664 0.39565,0.00111 0.79242,0.00559 1.1903,0.00782 -0.69518,6.046507 -1.42836,12.088543 -2.14701,18.131698 -3.04561,-0.129648 -6.08786,-0.329708 -9.13123,-0.492886 -0.0503,-0.299531 -0.11065,-0.596827 -0.16318,-0.89524 -0.41353,-0.01677 -0.82818,-0.02571 -1.23612,-0.09612 -1.06066,-5.457504 -2.03525,-10.934008 -3.06349,-16.399335 -0.0827,-0.5610621 -0.26042,-1.1120655 -0.25818,-1.6831866 z"
       id="path28" />
    <path
       style="fill:#000000;stroke-width:0.11176538"
       inkscape:connector-curvature="0"
       d="m 157.10748,7.5917651 c 0.0391,-0.03353 0.11735,-0.1005889 0.15759,-0.1341185 1.34007,-0.00671 2.68349,-0.014529 4.02355,0.041353 3.5005,0.01453 7.00099,0.044706 10.5026,0.073765 0.19335,-0.025706 0.30512,0.1810599 0.24365,0.348708 -0.0402,0.3218843 -0.0827,0.642651 -0.10953,0.965653 0.39676,0.00335 0.79353,0.00671 1.19141,0.00894 -0.66947,6.0465074 -1.42277,12.0851904 -2.13471,18.1272274 -3.04449,-0.116236 -6.08228,-0.333061 -9.12453,-0.483944 -0.0637,-0.300649 -0.11735,-0.602415 -0.17771,-0.903064 -0.41353,-0.01229 -0.82706,-0.02347 -1.23389,-0.095 -1.14224,-5.977213 -2.23642,-11.964484 -3.33843,-17.9495199 z"
       id="path30" />
    <path
       style="fill:#ffffff;stroke-width:0.11176538"
       inkscape:connector-curvature="0"
       d="m 34.488561,7.8320607 c 4.713144,0.03353 9.427409,0.035765 14.139437,0.1195889 C 47.9697,13.867391 47.226461,19.774192 46.543576,25.686581 45.262742,25.67317 43.9875,25.550227 42.708904,25.506639 41.045836,25.385932 39.378294,25.342344 37.716345,25.21046 36.635574,19.41766 35.568214,13.623743 34.488561,7.8320607 Z"
       id="path32" />
    <path
       style="fill:#ffffff;stroke-width:0.11176538"
       inkscape:connector-curvature="0"
       d="m 52.631434,7.8331783 c 4.716499,0.031294 9.435234,0.036883 14.149499,0.1173537 -0.710828,5.911271 -1.402655,11.824778 -2.111247,17.737166 -1.984955,-0.05029 -3.964319,-0.217942 -5.947038,-0.299531 -0.95783,-0.08718 -1.920128,-0.07824 -2.875722,-0.178824 -1.069597,-5.7928 -2.162661,-11.581129 -3.215492,-17.3761647 z"
       id="path34" />
    <path
       style="fill:#ffffff;stroke-width:0.11176538"
       inkscape:connector-curvature="0"
       d="m 103.23768,7.834296 c 4.72097,0.030177 9.44306,0.03353 14.16291,0.1184713 -0.71194,5.9112717 -1.40601,11.8236597 -2.11124,17.7349307 -2.59184,-0.08382 -5.1781,-0.285001 -7.7677,-0.401237 -0.35318,-0.0078 -0.70412,-0.05253 -1.05506,-0.07712 -1.08077,-5.790565 -2.14702,-11.584483 -3.22891,-17.375047 z"
       id="path36" />
    <path
       style="fill:#ffffff;stroke-width:0.11176538"
       inkscape:connector-curvature="0"
       d="m 121.38726,7.834296 c 4.71315,0.027941 9.42742,0.038 14.13833,0.1140007 -0.69854,5.9135063 -1.39931,11.8270133 -2.10678,17.7394013 -1.29313,-0.01676 -2.57955,-0.138589 -3.87044,-0.183295 -1.65077,-0.121824 -3.30602,-0.160942 -4.95456,-0.296178 -1.05841,-5.793917 -2.16824,-11.577776 -3.20655,-17.373929 z"
       id="path38" />
    <path
       style="fill:#ffffff;stroke-width:0.11176538"
       inkscape:connector-curvature="0"
       d="m 139.38708,7.8331783 c 4.71315,0.026824 9.42741,0.043589 14.13944,0.1117654 -0.68736,5.9157413 -1.39819,11.8292483 -2.10343,17.7416373 -1.29647,-0.01453 -2.58625,-0.138589 -3.88049,-0.183295 -1.64742,-0.121825 -3.30043,-0.158707 -4.94674,-0.296179 -1.0573,-5.793917 -2.16042,-11.578893 -3.20878,-17.3739287 z"
       id="path40" />
    <path
       style="fill:#ffffff;stroke-width:0.11176538"
       inkscape:connector-curvature="0"
       d="m 157.50872,7.834296 c 4.71314,0.023471 9.42741,0.045824 14.13944,0.1084124 -0.65048,5.9168596 -1.42166,11.8214246 -2.07213,17.7371666 -1.27525,0.0034 -2.54378,-0.131883 -3.81679,-0.172119 -1.67536,-0.124059 -3.35632,-0.160942 -5.02944,-0.301766 -1.06848,-5.791682 -2.14925,-11.58113 -3.22108,-17.371694 z"
       id="path42" />
    <path
       style="fill:#ffffff;stroke-width:0.11176538"
       inkscape:connector-curvature="0"
       d="m 191.47869,13.007916 c 0.84718,-1.573657 1.59266,-3.2020786 2.4566,-4.766794 -0.54206,1.979365 -1.25289,3.909553 -1.80836,5.885565 -0.15424,0.510768 -0.34089,1.012594 -0.45377,1.534539 0.36212,-0.08829 0.71754,-0.210119 1.07518,-0.323002 0.89189,-0.253708 1.75584,-0.602416 2.65555,-0.829299 -0.60018,0.372178 -1.24842,0.658298 -1.86313,1.005888 -0.50853,0.278296 -1.03159,0.529768 -1.53454,0.817005 0.67171,0.422473 1.40825,0.72424 2.10007,1.112066 1.57143,0.848299 3.19873,1.591539 4.76121,2.456603 -1.85084,-0.492885 -3.64691,-1.170184 -5.49103,-1.683187 -0.63707,-0.182177 -1.25848,-0.420238 -1.90337,-0.572238 0.35206,1.305419 0.86954,2.561662 1.21266,3.869317 -0.71083,-1.164595 -1.22383,-2.439838 -1.9436,-3.598845 -0.41577,0.737651 -0.76336,1.50995 -1.16348,2.255425 -0.83936,1.495421 -1.51107,3.081372 -2.3739,4.562263 0.50295,-1.855305 1.1646,-3.664787 1.69772,-5.512269 0.15982,-0.601297 0.38335,-1.182478 0.52641,-1.788246 -1.26071,0.321885 -2.45995,0.850535 -3.72402,1.151184 1.11654,-0.682887 2.32472,-1.204831 3.46361,-1.854188 -1.4183,-0.812535 -2.91149,-1.488715 -4.35885,-2.246484 -0.89859,-0.477239 -1.83742,-0.881829 -2.70361,-1.413832 2.55049,0.705239 5.04286,1.620598 7.58999,2.339249 -0.32412,-1.266302 -0.8483,-2.474485 -1.15789,-3.74414 0.6773,1.107595 1.20036,2.303484 1.83631,3.43455 0.41688,-0.669475 0.722,-1.401538 1.10424,-2.09113 z"
       id="path44" />
    <path
       style="fill:#000000;stroke-width:0.11176538"
       inkscape:connector-curvature="0"
       d="m 196.31478,9.7656019 c 0.2157,-0.4079437 0.84941,-0.4817088 1.14336,-0.1195889 0.29282,0.2905899 0.23694,0.810299 -0.0928,1.049477 -0.26153,0.216825 -0.62253,0.101706 -0.91536,0.03912 -1.23165,1.430597 -2.46219,2.8679 -3.66478,4.321967 -0.0179,0.09388 -0.0291,0.187766 -0.0369,0.281649 -0.35764,0.112883 -0.71306,0.234707 -1.07518,0.323002 0.11288,-0.521945 0.29953,-1.023771 0.45377,-1.534539 0.10059,-0.09612 0.22241,-0.175472 0.32077,-0.278296 0.17547,-0.02012 0.31517,-0.136353 0.44594,-0.248119 1.15342,-0.993594 2.31913,-1.972659 3.47702,-2.960665 -0.11512,-0.27159 -0.25594,-0.604651 -0.0559,-0.8740051 z"
       id="path46" />
    <path
       style="fill:#000000;stroke-width:0.11176538"
       inkscape:connector-curvature="0"
       d="m 90.220369,9.5744831 c 0.18106,0.044706 0.526414,0.086059 0.443709,0.3542961 -0.858357,3.1182538 -1.688774,6.2443318 -2.581782,9.3514098 -0.972356,-0.350943 -1.864245,-0.899711 -2.761723,-1.406009 0.501829,-1.020418 1.150068,-1.9626 1.711129,-2.950606 1.06289,-1.783775 2.123543,-3.567551 3.188667,-5.3490909 z"
       id="path48" />
    <path
       style="fill:#ffffff;stroke-width:0.11176538"
       inkscape:connector-curvature="0"
       d="m 187.69208,9.9276617 c 0.26935,-0.1799425 0.72312,0 0.71083,0.3509433 0.0603,0.354296 -0.40571,0.632592 -0.69071,0.418003 -0.28165,-0.152001 -0.29171,-0.597945 -0.0201,-0.7689463 z"
       id="path50" />
    <path
       style="fill:#000000;stroke-width:0.11176538"
       inkscape:connector-curvature="0"
       d="m 146.90665,10.562489 c 0.87513,1.751364 1.57143,3.587669 2.35155,5.382621 0.67506,1.582598 1.32106,3.180843 2.05536,4.737734 -0.31406,0.269355 -0.62365,0.544298 -0.95,0.798006 -0.51748,-1.250655 -0.98577,-2.522545 -1.53678,-3.758671 -1.28865,0.09835 -2.58178,0.130766 -3.87043,0.221296 -0.41912,1.18136 -0.80248,2.375014 -1.21936,3.556375 -0.31183,-0.235825 -0.60912,-0.488415 -0.91312,-0.732064 1.387,-3.390961 2.68907,-6.816571 4.08278,-10.205297 z"
       id="path52" />
    <path
       style="fill:#000000;stroke-width:0.11176538"
       inkscape:connector-curvature="0"
       d="m 57.973821,11.228611 c 1.532302,-0.05588 3.061253,-0.172119 4.591321,-0.262649 0.03577,0.378885 0.06594,0.757769 0.06818,1.137772 -1.104241,0.02235 -2.207366,0.03688 -3.310488,0.06035 -0.0089,1.228301 -0.0034,2.456603 -0.0034,3.684905 0.948891,-0.0089 1.897778,-0.04918 2.842194,-0.140825 0.01676,0.377767 0.02905,0.756652 0.03019,1.135537 -0.957828,-0.0089 -1.91454,-0.03353 -2.872371,-0.04024 0,1.182478 -0.0067,2.364956 0.0034,3.548551 1.157887,0.01677 2.315777,0.01677 3.471431,-0.05029 0.04694,0.410179 0.06371,0.822593 0.07153,1.236125 -1.607184,-0.02235 -3.213254,-0.08494 -4.819324,-0.137472 l -0.06594,-0.06594 c 0.03019,-3.367491 0.02569,-6.737218 -0.0067,-10.105826 z"
       id="path54" />
    <path
       style="fill:#000000;stroke-width:0.11176538"
       inkscape:connector-curvature="0"
       d="m 108.81478,13.016857 c 0.90641,-1.106478 2.25654,-1.778187 3.63014,-2.094483 0.095,0.362119 0.19558,0.724239 0.30064,1.084124 -0.95,0.253707 -1.96371,0.535356 -2.67007,1.261831 -0.32859,0.325237 -0.50742,0.874005 -0.22912,1.286419 0.39453,0.593475 1.09195,0.858359 1.67425,1.226067 0.64712,0.394532 1.40489,0.776769 1.7033,1.522244 0.27383,0.786829 0.01,1.666422 -0.51412,2.287838 -0.91089,1.105359 -2.29454,1.670892 -3.6469,2.024071 -0.14977,-0.356532 -0.27048,-0.723122 -0.39454,-1.087477 1.02266,-0.250355 2.10902,-0.556592 2.86902,-1.328891 0.47389,-0.469414 0.49736,-1.294243 0.0101,-1.76254 -0.8986,-0.844946 -2.25319,-1.121007 -2.97073,-2.174954 -0.48506,-0.69071 -0.27271,-1.631775 0.23806,-2.244249 z"
       id="path56" />
    <path
       style="fill:#000000;stroke-width:0.11176538"
       inkscape:connector-curvature="0"
       d="m 39.480002,11.18614 c 1.151183,0 2.318013,0.02683 3.43902,0.317413 0.60577,0.169884 1.23948,0.435885 1.604951,0.974595 0.451532,0.672827 0.323003,1.616127 -0.184412,2.223013 -0.34312,0.461591 -0.856123,0.738769 -1.331124,1.043889 0.776767,0.192236 1.565831,0.583415 1.977127,1.302067 0.412414,0.673945 0.31518,1.565833 -0.114,2.208484 -0.604651,0.931005 -1.637362,1.484244 -2.672311,1.80501 -0.878475,0.273826 -1.801656,0.377768 -2.719251,0.371061 0.06035,-3.415549 0.07824,-6.8311 0,-10.245532 z"
       id="path58" />
    <path
       style="fill:#000000;stroke-width:0.11176538"
       inkscape:connector-curvature="0"
       d="m 123.99587,11.325846 c 1.47418,0.128531 2.95508,0.140825 4.43373,0.154237 1.6966,-0.0011 3.39543,-0.01006 5.08644,-0.154237 0,0.407944 0.001,0.815888 -0.002,1.222714 -1.36577,-0.118471 -2.73936,-0.102824 -4.10961,-0.120707 -0.0246,3.02996 0.0246,6.061037 0.18106,9.087644 -0.52082,0.0056 -1.04053,0.0022 -1.55913,0.0022 0.076,-1.697716 0.0156,-3.397667 0.0849,-5.095384 -0.0123,-1.330008 0.0257,-2.662251 -0.019,-3.992259 -1.36466,0.01118 -2.73379,-0.0045 -4.09285,0.121824 -0.007,-0.409061 -0.006,-0.818123 -0.003,-1.226066 z"
       id="path60" />
    <path
       style="fill:#000000;stroke-width:0.11176538"
       inkscape:connector-curvature="0"
       d="m 161.3378,11.343729 c 1.17018,0 2.34596,0.03465 3.50273,0.222413 0.8293,0.160942 1.72566,0.47165 2.22078,1.203713 0.48171,0.720887 0.32523,1.684305 -0.0984,2.394015 -0.38224,0.667239 -1.00589,1.138889 -1.62395,1.571421 1.10648,1.398185 2.22413,2.789664 3.37085,4.156555 -0.3543,0.301766 -0.72424,0.583415 -1.07966,0.882946 -1.31436,-1.679833 -2.60525,-3.378667 -3.86708,-5.098737 0.7153,-0.406826 1.44401,-0.882946 1.86313,-1.615009 0.26041,-0.450415 0.40459,-1.015948 0.22688,-1.520009 -0.152,-0.41465 -0.53088,-0.695181 -0.92542,-0.858359 -0.70076,-0.289472 -1.46859,-0.352061 -2.21742,-0.364355 -0.0157,3.065725 -0.0257,6.133684 0.0659,9.198291 -0.4683,0.0034 -0.93547,0.0034 -1.40265,-0.0011 0.0291,-1.622834 0.0849,-3.246785 0.0123,-4.869618 -0.006,-1.767011 0.006,-3.53514 -0.0481,-5.30215 z"
       id="path62" />
    <path
       style="fill:#000000;stroke-width:0.11176538"
       inkscape:connector-curvature="0"
       d="m 22.078131,12.056792 c 0.467179,5.417268 0.85836,10.841243 1.345657,16.256275 1.636243,-3.208784 3.271371,-6.417568 4.871852,-9.644235 0.04806,0.03241 0.145295,0.09724 0.194471,0.129648 -0.765591,2.326955 -1.482008,4.669558 -2.228602,7.003219 -0.459354,1.48648 -0.957828,2.961783 -1.392597,4.456086 0.502945,-0.361002 0.953361,-0.789064 1.430599,-1.18136 1.632891,-1.384773 3.260197,-2.776252 4.89644,-4.157672 -0.260413,-0.423591 -0.399,-0.990242 -0.06482,-1.417185 0.411296,-0.653828 1.504363,-0.623651 1.868719,0.06035 0.38112,0.580062 0.04806,1.456303 -0.621417,1.636245 -0.365472,0.107295 -0.734299,-0.01341 -1.065123,-0.16653 -1.461891,1.741304 -2.941665,3.469197 -4.411381,5.202678 -0.483944,0.59571 -1.018181,1.151184 -1.467478,1.773717 1.802774,-0.548768 3.580963,-1.175772 5.379266,-1.740187 0.02683,-0.402355 0.115118,-0.875123 0.518592,-1.06736 0.568886,-0.345355 1.404892,0.09388 1.402655,0.768946 0.06706,0.547651 -0.440354,1.049477 -0.9813,1.017065 -0.29953,-0.0067 -0.538707,-0.209001 -0.771179,-0.372178 -1.290893,0.687357 -2.614192,1.317714 -3.881611,2.046424 4.08167,0.367708 8.171166,0.666122 12.255073,1.013712 1.639598,0.105059 3.274726,0.310708 4.916558,0.368826 -5.42062,0.471649 -10.849066,0.866181 -16.269687,1.34789 2.045309,1.104242 4.144261,2.110131 6.211921,3.174136 1.15342,0.60577 2.342601,1.146713 3.474785,1.7916 -0.0827,0.01565 -0.247002,0.04806 -0.329706,0.06371 -3.7732,-1.1903 -7.539694,-2.405188 -11.320716,-3.572019 1.72901,2.120188 3.538491,4.176671 5.295444,6.274507 0.392296,-0.179941 0.876241,-0.296177 1.268538,-0.05029 0.553238,0.302885 0.734298,1.102007 0.354294,1.609422 -0.418003,0.648238 -1.52448,0.602414 -1.876541,-0.08941 -0.285001,-0.425828 -0.116236,-0.943302 0.118473,-1.345657 -2.310192,-1.943598 -4.58797,-3.926317 -6.911572,-5.852034 0.532002,1.726776 1.122125,3.436786 1.674245,5.157971 0.0637,0.380004 0.555475,0.223532 0.785711,0.439239 0.594593,0.386708 0.483945,1.407125 -0.187767,1.646305 -0.576708,0.287238 -1.308773,-0.209003 -1.323302,-0.834887 -0.0313,-0.354298 0.209003,-0.640417 0.435887,-0.880712 -0.53871,-1.019302 -1.069597,-2.040835 -1.597129,-3.065726 -0.182179,-0.346473 -0.337532,-0.710826 -0.589004,-1.014829 -0.44818,5.793917 -0.93324,11.586717 -1.404889,17.379516 -0.01454,-1.052828 -0.184415,-2.0956 -0.233591,-3.147313 -0.374412,-4.355497 -0.686238,-8.716582 -1.084123,-13.068725 -1.642953,3.202078 -3.226668,6.436568 -4.895325,9.625235 -0.01787,-0.08047 -0.05476,-0.240295 -0.07265,-0.320766 1.179126,-3.779907 2.408547,-7.545282 3.563082,-11.331893 -2.126895,1.751364 -4.213554,3.556375 -6.308039,5.346856 0.09165,0.226885 0.223532,0.451532 0.215707,0.705241 0.01676,0.515236 -0.375531,1.010359 -0.886297,1.0953 -0.627006,0.16206 -1.294244,-0.349828 -1.343421,-0.985771 -0.06259,-0.597944 0.442591,-1.201477 1.050595,-1.205948 0.311825,-0.03576 0.587885,0.127411 0.857239,0.257058 1.936894,-2.335895 3.93973,-4.619262 5.874388,-6.957394 -1.775952,0.561062 -3.545197,1.150065 -5.313324,1.736833 -0.136355,0.194474 -0.09389,0.464945 -0.219062,0.669475 -0.288353,0.549886 -1.155654,0.618062 -1.540125,0.137472 -0.439239,-0.483945 -0.191119,-1.402655 0.472768,-1.531187 0.409059,-0.108411 0.809181,0.07936 1.080771,0.381122 0.972356,-0.511888 1.951423,-1.011477 2.92378,-1.523363 0.359886,-0.195589 0.744357,-0.352061 1.074067,-0.60018 C 11.534186,35.003343 5.7670932,34.548458 -2.8673029e-6,34.089102 5.4206177,33.661041 10.840123,33.222921 16.258507,32.764683 13.149196,31.14632 10.009706,29.581604 6.8802744,28.00236 6.7740969,27.939771 6.7159803,27.843653 6.7059214,27.711769 c 3.8771406,1.173537 7.7229866,2.457722 11.5990126,3.637964 -1.741305,-2.157072 -3.596611,-4.224732 -5.356915,-6.367274 -0.272709,0.133001 -0.555476,0.29059 -0.870653,0.251472 -0.570005,0.0011 -1.052831,-0.544298 -1.042772,-1.102007 -0.01118,-0.601297 0.551005,-1.16236 1.16236,-1.099771 0.582297,-0.01565 1.084123,0.526415 1.069594,1.099771 0,0.264884 -0.155354,0.498474 -0.169883,0.761123 2.302366,1.96707 4.600262,3.9442 6.930572,5.877741 -0.510767,-1.805011 -1.171301,-3.566433 -1.713363,-5.363621 -0.296177,-0.05029 -0.63818,-0.04359 -0.869534,-0.266001 -0.481711,-0.390062 -0.400122,-1.25289 0.150883,-1.541245 0.502945,-0.293943 1.252891,-0.02794 1.384771,0.559945 0.159827,0.394531 -0.09612,0.779004 -0.329706,1.079653 0.686238,1.312126 1.356831,2.632075 2.053131,3.938613 0.445943,-5.330092 0.867297,-10.661301 1.307655,-15.991392 0.06147,-0.374414 0.06594,-0.752181 0.06706,-1.129948 z"
       id="path64" />
    <path
       style="fill:#ffffff;stroke-width:0.11176538"
       inkscape:connector-curvature="0"
       d="m 40.774246,12.109322 c 0.757768,0.02347 1.580363,0.101706 2.207366,0.571121 0.523062,0.391179 0.581179,1.17689 0.24812,1.71001 -0.50071,0.836006 -1.511069,1.232773 -2.454368,1.238361 -0.0056,-1.173537 -0.0022,-2.345956 -0.0013,-3.519492 z"
       id="path66" />
    <path
       style="fill:#ffffff;stroke-width:0.11176538"
       inkscape:connector-curvature="0"
       d="m 145.35759,16.95994 c 0.51859,-1.341185 0.96006,-2.715899 1.53118,-4.034731 0.61471,1.25289 1.0696,2.584016 1.61501,3.871553 -1.04948,0.05588 -2.0956,0.144178 -3.14619,0.163178 z"
       id="path68" />
    <path
       style="fill:#2d2d2d;stroke-width:0.11176538"
       inkscape:connector-curvature="0"
       d="m 196.33378,13.466154 c 0.28723,-0.295061 0.87736,-0.194472 1.01259,0.210119 0.14083,0.339766 -0.0592,0.763357 -0.42359,0.846064 -0.31406,0.130765 -0.58565,-0.31965 -0.88183,-0.112884 -0.74994,0.386709 -1.49765,0.777887 -2.24425,1.171302 -0.0637,-0.01677 -0.19112,-0.04918 -0.25594,-0.06594 0.61471,-0.34759 1.26295,-0.63371 1.86313,-1.005888 -0.89971,0.226883 -1.76366,0.575591 -2.65555,0.829299 0.008,-0.09388 0.019,-0.187766 0.0369,-0.281649 0.342,0.01453 0.66165,-0.126295 0.98241,-0.228001 0.77901,-0.258178 1.55913,-0.513003 2.33814,-0.770064 0.057,-0.201177 0.0671,-0.43812 0.228,-0.592356 z"
       id="path70" />
    <path
       style="fill:#ffffff;stroke-width:0.11176538"
       inkscape:connector-curvature="0"
       d="m 196.54166,13.538801 c 0.31742,-0.234707 0.80024,0.153119 0.64824,0.515239 -0.0995,0.344237 -0.627,0.413532 -0.79353,0.09165 -0.1453,-0.195589 -0.057,-0.489532 0.14529,-0.606886 z"
       id="path72" />
    <path
       style="fill:#000000;stroke-width:0.11176538"
       inkscape:connector-curvature="0"
       d="m 192.00622,16.331818 c 0.50295,-0.287237 1.02601,-0.538709 1.53454,-0.817005 0.0648,0.01677 0.19224,0.04918 0.25594,0.06594 1.05507,0.177707 2.13361,0.177707 3.19761,0.298413 2.59184,0.191119 5.18033,0.444826 7.77328,0.615827 -2.9059,0.249237 -5.81403,0.471651 -8.71993,0.716417 -0.55883,0.06482 -1.1266,0.04135 -1.67536,0.167648 -0.0659,0.01565 -0.19895,0.04806 -0.26601,0.06482 -0.69182,-0.387826 -1.42836,-0.689593 -2.10007,-1.112066 z"
       id="path74" />
    <path
       style="fill:#ffffff;stroke-width:0.11176538"
       inkscape:connector-curvature="0"
       d="m 40.78095,16.462584 c 0.905299,-0.02124 1.922365,0.07041 2.611958,0.725357 0.587885,0.52418 0.485063,1.487597 0.0022,2.045307 -0.642654,0.764475 -1.665305,1.04277 -2.618666,1.161242 -0.0034,-1.311008 -0.01118,-2.622016 0.0045,-3.931906 z"
       id="path76" />
    <path
       style="fill:#4e4e4e;stroke-width:0.11176538"
       inkscape:connector-curvature="0"
       d="m 194.10629,17.443884 c 0.0671,-0.01677 0.20006,-0.04918 0.26601,-0.06482 1.97265,0.975711 3.92743,1.988306 5.89562,2.974077 0.133,0.05365 0.21347,0.175471 0.29841,0.289472 -0.91312,-0.198942 -1.78601,-0.54765 -2.68125,-0.809181 -1.29983,-0.407944 -2.59631,-0.827064 -3.89726,-1.22942 -0.24923,-0.08159 -0.51412,-0.144177 -0.71865,-0.31406 l 0.1073,-0.07265 c 1.84412,0.513003 3.64019,1.190302 5.49103,1.683187 -1.56248,-0.865064 -3.18978,-1.608304 -4.76121,-2.456603 z"
       id="path78" />
    <path
       style="fill:#000000;stroke-width:0.11176538"
       inkscape:connector-curvature="0"
       d="m 78.262591,18.004946 c 0.681768,-0.423591 1.537891,-0.456003 2.306837,-0.298414 0.70077,0.14306 1.397066,0.359885 2.019602,0.720887 -0.555475,0.998065 -1.400422,1.8866 -2.461075,2.344838 -0.833769,0.373296 -1.960364,0.139707 -2.442075,-0.673945 -0.412414,-0.706358 -0.101704,-1.672011 0.576711,-2.093366 z"
       id="path80" />
    <path
       style="fill:#000000;stroke-width:0.11176538"
       inkscape:connector-curvature="0"
       d="m 191.4731,17.645062 c 0.64489,0.152 1.2663,0.390061 1.90337,0.572238 l -0.1073,0.07265 c -0.0358,0.02571 -0.10841,0.076 -0.14418,0.101706 1.12436,1.298714 2.22972,2.616428 3.34067,3.927436 0.24477,-0.06594 0.52642,-0.209001 0.77118,-0.05141 0.43701,0.179942 0.55436,0.818122 0.21124,1.14336 -0.30289,0.343119 -0.9053,0.27159 -1.1266,-0.12406 -0.21235,-0.279413 -0.0514,-0.61918 0.0447,-0.907535 -1.47977,-1.207066 -2.8869,-2.506897 -4.39238,-3.680434 0.32859,1.133301 0.73206,2.244249 1.08077,3.371962 0.35094,0.06482 0.77677,0.287237 0.72312,0.710828 0.001,0.612474 -0.97906,0.773416 -1.16571,0.192236 -0.17324,-0.289472 0.0794,-0.571121 0.19894,-0.824829 -0.44594,-0.839358 -0.87177,-1.688774 -1.32218,-2.52478 -0.16094,0.630357 -0.14083,1.294243 -0.20788,1.93913 -0.27159,3.044489 -0.46718,6.096802 -0.76672,9.13682 -0.209,-3.310491 -0.5387,-6.615393 -0.779,-9.924766 -0.0346,-0.206766 -0.0961,-0.405708 -0.15647,-0.604651 0.40012,-0.745475 0.74771,-1.517774 1.16348,-2.255425 0.71977,1.159007 1.23277,2.43425 1.9436,3.598845 -0.34312,-1.307655 -0.8606,-2.563898 -1.21266,-3.869317 z"
       id="path82" />
    <path
       style="fill:#fefefe;stroke-width:0.11176538"
       inkscape:connector-curvature="0"
       d="m 184.24076,18.695656 c 0.43142,-0.138589 0.78013,0.472768 0.42583,0.763358 -0.22912,0.283884 -0.73877,0.095 -0.76112,-0.251472 -0.0537,-0.224649 0.10841,-0.470533 0.33529,-0.511886 z"
       id="path84" />
    <path
       style="fill:#535353;stroke-width:0.11176538"
       inkscape:connector-curvature="0"
       d="m 188.72479,19.014187 c 0.057,0.06818 0.11624,0.137472 0.17771,0.206766 -0.53312,1.847482 -1.19477,3.656964 -1.69772,5.512269 0.86283,-1.480891 1.53454,-3.066842 2.3739,-4.562263 0.0603,0.198943 0.12182,0.397885 0.15647,0.604651 -0.0358,-0.108412 -0.0693,-0.215707 -0.10282,-0.321884 -0.95336,1.927952 -1.94472,3.838023 -2.90255,5.763741 -0.0537,0.137471 -0.17994,0.214589 -0.28947,0.296178 0.18329,-0.884065 0.52418,-1.727893 0.77677,-2.594075 0.41353,-1.306537 0.82371,-2.613075 1.24059,-3.918494 0.0816,-0.283885 0.22465,-0.571121 0.15088,-0.872888 0.0291,-0.02906 0.0872,-0.08494 0.11624,-0.114001 z"
       id="path86" />
    <path
       style="fill:#ffffff;stroke-width:0.11176538"
       inkscape:connector-curvature="0"
       d="m 27.247279,21.305378 c 0.114003,-0.228002 0.229121,-0.457121 0.369946,-0.670593 -0.04024,0.193354 -0.09277,0.383356 -0.152002,0.572239 -1.09977,3.472551 -2.197307,6.945101 -3.295962,10.418769 -0.115118,0.371061 -0.258176,0.736534 -0.306237,1.12436 0.145294,-0.02794 0.290592,-0.06259 0.43365,-0.101707 1.96819,-0.633709 3.922965,-1.307654 5.897859,-1.915658 -1.911188,1.045006 -3.873786,1.997247 -5.786093,3.041136 0.101708,0.102824 0.20453,0.207884 0.338651,0.268237 3.368608,1.696599 6.72492,3.414433 10.093531,5.109915 0.258176,0.129647 0.519707,0.254824 0.760005,0.417999 -0.402355,-0.06818 -0.786829,-0.208999 -1.174656,-0.329706 -3.423372,-1.088596 -6.8501,-2.166012 -10.272355,-3.254608 -0.191119,-0.06147 -0.387826,-0.09947 -0.584533,-0.133001 0.157587,0.802476 0.481708,1.559129 0.715299,2.340367 0.399,1.287537 0.880708,2.551604 1.22271,3.854789 -0.991356,-1.801659 -1.901129,-3.648023 -2.862308,-5.466446 -0.07153,-0.110647 -0.15312,-0.214589 -0.251473,-0.300648 -1.362419,2.619782 -2.676781,5.265268 -4.014613,7.897341 -0.585652,1.115418 -1.102007,2.271074 -1.734598,3.360786 0.076,-0.433651 0.230236,-0.847183 0.361001,-1.265183 1.003652,-3.170785 2.003955,-6.341571 3.007607,-9.512353 0.125177,-0.413532 0.292826,-0.818123 0.335295,-1.251773 -0.535355,0.102825 -1.041654,0.310708 -1.560243,0.472768 -1.572541,0.50965 -3.138372,1.040536 -4.715383,1.535655 1.907836,-1.049475 3.869319,-2.002834 5.78274,-3.038899 0.09612,-0.156472 -0.06482,-0.21459 -0.177704,-0.273826 -3.730732,-1.893305 -7.4704,-3.769846 -11.191069,-5.683269 3.97326,1.222713 7.928635,2.50578 11.896306,3.749728 0.133002,0.03688 0.269356,0.05812 0.409062,0.06371 -0.599063,-2.093366 -1.37136,-4.136437 -1.984952,-6.22645 1.046124,1.887717 1.979363,3.838023 3.015429,5.731329 0.106177,-0.108412 0.211236,-0.220178 0.278296,-0.357649 1.707774,-3.395433 3.440139,-6.779688 5.146794,-10.177356 z"
       id="path88" />
    <path
       style="fill:#ffffff;stroke-width:0.11176538"
       inkscape:connector-curvature="0"
       d="m 192.94393,22.333619 c 0.27159,-0.156471 0.64936,0.04359 0.68736,0.354297 0.0447,0.349825 -0.38335,0.63818 -0.68736,0.45265 -0.29953,-0.160943 -0.29841,-0.644887 0,-0.806947 z"
       id="path90" />
    <path
       style="fill:#ffffff;stroke-width:0.11176538"
       inkscape:connector-curvature="0"
       d="m 17.837752,23.751922 c 0.451534,-0.164295 1.000303,0.214589 0.928772,0.70971 0.02683,0.574474 -0.744357,0.874006 -1.152301,0.508533 -0.42024,-0.319649 -0.282767,-1.068477 0.223529,-1.218243 z"
       id="path92" />
    <path
       style="fill:#ffffff;stroke-width:0.11176538"
       inkscape:connector-curvature="0"
       d="m 31.456367,29.409486 c 0.416884,-0.261531 1.024888,0.07265 1.04165,0.558827 0.04806,0.344237 -0.207881,0.680651 -0.542061,0.753298 -0.319648,0.102824 -0.652709,-0.115118 -0.812533,-0.384473 -0.114003,-0.334178 -0.03465,-0.768945 0.312944,-0.927652 z"
       id="path94" />
    <path
       style="fill:#000000;stroke-width:0.11176538"
       inkscape:connector-curvature="0"
       d="m 49.168945,36.740177 c 1.451831,-1.148948 3.310488,-1.768128 5.160207,-1.74354 1.730129,-0.04024 3.498256,0.506298 4.827147,1.632893 1.34789,1.121006 2.173837,2.846664 2.182778,4.60138 0.05029,1.859775 -0.675064,3.716198 -1.930188,5.084207 -1.170185,1.281948 -2.885785,2.0766 -4.63156,2.029661 -1.115418,0.01118 -2.18613,-0.348709 -3.202077,-0.774534 -0.784593,1.957012 -1.57589,3.910669 -2.354898,5.869918 -0.06035,0.111763 -0.08829,0.32747 -0.264883,0.29059 -0.707474,0.0034 -1.414951,0.0034 -2.122424,-0.0045 1.721187,-4.305203 3.459138,-8.604817 5.190384,-12.906668 0.581182,-1.421655 1.844128,-2.771782 3.473667,-2.804192 0.138591,0.45265 0.293945,0.901944 0.393415,1.365771 -0.438121,0.230236 -0.839358,0.536473 -1.144476,0.929888 -0.649357,0.78236 -0.923184,1.779304 -1.321069,2.695781 -0.406826,1.038302 -0.869534,2.055365 -1.238358,3.107077 1.156772,0.548769 2.528132,0.758887 3.747491,0.290593 2.592958,-0.966772 3.998965,-4.251557 2.92155,-6.797573 -0.576712,-1.436184 -1.93578,-2.497955 -3.455787,-2.755016 -1.084126,-0.155354 -2.217424,-0.09724 -3.249019,0.291708 -1.742424,0.628121 -3.147313,2.073248 -3.802259,3.797788 -0.220177,0.592356 -0.361001,1.223829 -0.333061,1.859775 0.01454,0.662768 0.241413,1.29536 0.500707,1.897778 -0.513003,0.378882 -1.011474,0.777886 -1.540124,1.134417 -0.685123,-1.214888 -0.984656,-2.660016 -0.757772,-4.041435 0.27159,-1.984955 1.380304,-3.819024 2.950609,-5.051796 z"
       id="path96" />
    <path
       style="fill:#000000;stroke-width:0.42242032"
       d="m 432.5957,126.92188 c -6.72914,-0.17742 -13.58773,1.76094 -18.96093,5.87109 -5.61396,4.24533 -9.40429,10.75136 -10.46875,17.6875 -0.94625,5.44501 0.0132,11.13417 2.45898,16.07226 2.08252,-1.36441 3.98288,-2.98195 6.05273,-4.36328 -1.16167,-2.76685 -2.00109,-5.73265 -1.77734,-8.76562 0.35059,-7.41771 5.00874,-14.49274 11.7168,-17.70313 4.18193,-2.06987 9.01141,-2.44158 13.58203,-1.8164 3.51874,0.6294 6.99538,2.33667 9.13281,5.28515 2.9274,3.97921 3.12924,9.69344 0.60742,13.92188 -3.40471,5.66467 -10.98609,7.47829 -17.03515,5.53515 0.57868,-2.27262 1.63817,-4.38966 2.44922,-6.58203 1.38553,-3.55678 3.78844,-6.868 7.27343,-8.5957 -0.44776,-1.7277 -1.00937,-3.42201 -1.50781,-5.13281 -3.43007,0.008 -6.61979,1.76634 -8.97266,4.16992 -2.61479,2.60634 -4.12139,6.03053 -5.38867,9.43945 -2.58519,6.41235 -5.16675,12.83343 -7.75195,19.25 -1.57141,3.86093 -3.197,7.72706 -5.40625,11.27539 -3.20617,-2.23461 -6.67605,-4.38444 -10.61719,-4.93359 -3.62018,-0.54069 -7.55155,0.32826 -10.34375,2.76562 -3.12174,2.78375 -4.60522,7.39299 -3.38867,11.43555 0.79415,2.87669 2.9328,5.29792 5.58984,6.60742 3.47229,1.67279 7.55248,1.74832 11.24024,0.81055 3.90735,-1.01381 7.20998,-3.53121 9.94726,-6.41211 3.34557,2.53874 6.73712,5.1023 10.61914,6.7793 4.71421,2.07408 10.21122,2.41228 15.08594,0.69726 3.67083,-1.26726 6.80556,-3.86155 8.94727,-7.07617 3.25685,-4.8874 4.4687,-11.0764 3.35351,-16.83398 -1.03914,-5.15353 -4.38547,-9.6717 -8.78711,-12.47657 3.67507,-0.98423 7.24889,-2.7166 9.88477,-5.52148 5.89701,-6.21802 5.52049,-16.65665 0.42187,-23.24219 -4.15661,-5.49568 -11.18563,-8.24561 -17.95703,-8.14843 z m -7.15039,37.3164 c 5.22958,1.11519 10.713,3.28679 13.87696,7.83203 3.46805,5.03525 2.57118,12.05138 -0.76172,16.92188 -2.12478,3.16393 -5.97231,5.00122 -9.76563,4.77734 -5.19999,-0.2239 -9.81777,-3.14263 -13.66601,-6.4375 4.40163,-7.22762 7.14402,-15.29165 10.3164,-23.09375 z m -29.60351,19.39453 c 3.44273,0.0464 6.28937,2.27644 9.00976,4.13086 -2.16703,2.57255 -5.11527,4.85746 -8.59179,5.06445 -2.33598,0.0212 -5.0734,-1.14011 -5.70704,-3.58593 -0.61251,-3.02031 2.40396,-5.70231 5.28907,-5.60938 z"
       transform="matrix(0.26458333,0,0,0.26458333,-2.8673029e-6,1.4151748)"
       id="path98"
       inkscape:connector-curvature="0" />
    <path
       style="fill:#ffffff;stroke-width:0.11176538"
       inkscape:connector-curvature="0"
       d="m 12.24166,37.484534 c 0.456002,-0.156472 1.003655,0.224648 0.927654,0.723122 0.01118,0.555475 -0.735417,0.859475 -1.141124,0.507414 -0.437006,-0.309589 -0.307355,-1.088593 0.21347,-1.230536 z"
       id="path100" />
    <path
       style="fill:#000000;stroke-width:0.42242032"
       d="m 244.30664,138.01953 c -7.90771,19.55806 -15.84838,39.10832 -23.70117,58.6875 2.83867,0.0465 5.68055,0.004 8.52344,0.0254 4.03411,-9.80015 7.97555,-19.63967 11.95898,-29.46094 0.23233,-0.58293 0.55387,-1.12709 1.00586,-1.5664 2.09943,-2.18814 4.57845,-4.12256 7.48047,-5.11524 1.16166,-0.3295 2.65798,-0.5579 3.62109,0.36719 0.90399,1.00959 0.1642,2.38677 -0.12304,3.50195 -1.62632,4.48611 -3.51,8.87124 -5.27149,13.30664 -1.78684,4.48611 -3.54533,9.23342 -3.04687,14.1504 0.19854,2.27684 1.6309,4.47828 3.83593,5.25976 3.23574,1.13631 6.93138,0.5744 9.86719,-1.14062 4.51989,-2.59788 7.84103,-6.76722 10.86133,-10.92383 -0.10984,3.56099 0.55704,7.51848 3.32812,10.02344 2.83866,2.74151 7.16448,3.03796 10.84375,2.24804 4.68465,-1.11941 8.41915,-4.50313 11.25782,-8.25 1.1701,-0.1394 2.33153,0.29575 3.50586,0.3086 3.81869,0.0803 7.42682,-1.60216 10.37109,-3.92969 -0.53644,2.59788 -0.91197,5.38158 -0.10938,7.9668 0.65053,2.14167 2.61746,3.63844 4.76758,4.05664 2.86824,0.49845 5.89403,0.16338 8.52149,-1.125 5.11972,-2.43737 8.95022,-6.83489 12.23242,-11.33789 0.1056,3.34557 0.49355,7.00036 2.88867,9.56445 2.88513,3.20195 7.67151,3.64539 11.64649,2.67383 4.62128,-1.19545 8.26222,-4.58802 11.08398,-8.29688 2.57254,0.51112 5.25939,0.63454 7.78125,-0.21875 5.7069,-1.80796 9.83516,-6.64417 12.67383,-11.70898 -0.89133,-1.05606 -2.11207,-2.52654 -3.60742,-2.25196 -1.75728,2.62323 -3.5525,5.33117 -6.15039,7.21094 -2.16279,1.70658 -4.94278,2.61495 -7.70118,2.28125 1.94313,-4.14817 3.69145,-8.41138 4.625,-12.91015 0.89554,-4.26644 1.49156,-8.95454 -0.49804,-13.00977 -1.58407,-3.35825 -5.31868,-5.26882 -8.94727,-5.22656 -4.748,-0.19853 -9.21253,2.24323 -12.46094,5.55078 -4.06791,4.15662 -6.81044,9.42899 -8.75781,14.86133 -0.26189,0.92932 -1.2703,1.31432 -1.70117,2.14648 -2.66125,4.38895 -5.59766,8.65856 -9.23047,12.3125 -1.7446,1.66012 -3.65848,3.29039 -5.99023,4.02539 -1.14899,0.22811 -2.82563,0.49019 -3.42969,-0.80664 -0.35482,-1.25459 -0.18217,-2.58885 0.0586,-3.84765 0.76459,-3.20195 2.13368,-6.20989 3.3418,-9.25977 3.15548,-7.81055 6.28629,-15.63376 9.46289,-23.43164 0.10983,-0.12673 0.32575,-0.37913 0.43555,-0.50586 2.32754,-0.0971 4.65846,0.0165 6.99023,-0.0469 0.57027,-1.46157 1.16546,-2.91047 1.76953,-4.35937 -2.38668,-0.0302 -4.77379,0.008 -7.15625,-0.0254 1.47847,-3.95386 3.15248,-7.8329 4.68164,-11.76563 -2.86401,-0.0178 -5.72811,-0.0167 -8.58789,-0.004 -1.58831,3.93273 -3.12601,7.88589 -4.77343,11.78906 -2.50074,-0.008 -5.00122,-0.0154 -7.50196,0.006 -0.57871,1.45736 -1.19663,2.90139 -1.75,4.36719 2.47116,0.0212 4.9429,-0.0122 7.41406,0.0215 -2.54719,6.71226 -5.30209,13.36184 -8.03515,19.99805 -1.85021,1.41511 -2.71094,3.66502 -4.34571,5.28711 -2.55563,2.94849 -6.30776,5.46684 -10.39257,4.76562 3.20195,-6.82631 5.94376,-14.28651 5.26367,-21.94922 -0.37596,-3.41737 -2.34893,-6.79705 -5.60156,-8.16992 -4.84939,-2.08675 -10.59707,-0.6499 -14.62696,2.53516 -5.37319,4.24531 -8.78205,10.4632 -11.05468,16.8164 -0.23655,1.0645 -1.3518,1.49609 -1.8418,2.4043 -2.41202,3.96652 -4.9886,7.86465 -8.07227,11.34961 -1.77838,1.87555 -3.61578,3.89943 -6.09961,4.82031 -0.92932,0.23233 -2.23187,0.4345 -2.83593,-0.51172 -0.88708,-1.69813 -0.1692,-3.64081 0.23632,-5.37695 1.187,-3.96231 2.96979,-7.71394 4.46094,-11.5664 1.78261,-4.56637 4.00027,-9.05143 4.69727,-13.94727 0.34216,-2.17547 -0.27012,-4.64249 -2.05274,-6.04492 -1.82485,-1.48694 -4.35133,-1.66075 -6.58593,-1.26367 -3.48919,0.69277 -6.49523,2.77144 -9.10157,5.10742 2.70772,-6.81365 5.57913,-13.56896 8.13477,-20.4375 -2.83022,-0.0132 -5.66034,-0.004 -8.48633,-0.004 z M 292.33203,159 c 0.89236,-0.003 1.7512,0.29023 2.33203,1.02734 1.25882,1.61365 1.00077,3.8016 0.88672,5.71094 -0.49423,3.83558 -1.75299,7.51462 -3.0625,11.13477 -2.06564,-0.0971 -4.30859,0.76135 -5.2168,2.73828 -1.1363,1.95158 -0.54183,4.3666 0.81836,6.03515 -1.48269,2.32332 -3.23437,4.69818 -5.77734,5.93164 -1.53338,0.82796 -3.61133,0.40057 -4.51953,-1.13281 -1.37709,-2.30219 -0.7944,-5.12358 -0.33399,-7.60742 1.21236,-5.4281 3.24737,-10.66982 5.95508,-15.52344 1.66856,-2.84289 3.54416,-5.76267 6.38282,-7.5664 0.716,-0.44777 1.64279,-0.74541 2.53515,-0.74805 z m 64.74414,0.0117 c 0.33156,-0.005 0.6712,0.028 1.01758,0.10351 1.98116,0.64631 2.47188,3.05343 2.4043,4.88672 -0.23656,4.45655 -1.71039,8.72785 -3.22266,12.88867 -1.39821,0.005 -2.90198,0.19481 -3.9707,1.1875 -1.85019,1.49114 -2.32372,4.35488 -1.13672,6.38672 0.22386,0.54915 0.86112,1.12704 0.37109,1.72266 -1.48269,2.25995 -3.28138,4.59516 -5.90039,5.5625 -1.68545,0.73079 -3.78493,-0.20592 -4.38476,-1.93359 -1.1321,-3.00341 -0.13971,-6.24005 0.54882,-9.22657 1.8333,-6.38699 4.42738,-12.70893 8.58399,-17.95117 1.42303,-1.71133 3.36854,-3.58929 5.68945,-3.62695 z"
       transform="matrix(0.26458333,0,0,0.26458333,-2.8673029e-6,1.4151748)"
       id="path102"
       inkscape:connector-curvature="0" />
    <path
       style="fill:#000000;stroke-width:0.42242032"
       d="m 581.43555,138.01172 c -1.39557,-0.004 -2.79157,-0.004 -4.18555,0.0195 -1.23768,2.10788 -1.8788,4.54078 -2.89258,6.77539 -3.84828,9.53825 -7.71878,19.07245 -11.55859,28.61914 -0.1985,0.47734 -0.44775,0.94652 -0.88281,1.24219 -1.13212,0.88708 -1.64241,2.29048 -2.44922,3.43945 -2.68237,4.1017 -5.58578,8.15125 -9.32422,11.35742 -1.96426,1.59253 -4.42665,3.33725 -7.08789,2.61914 -1.25458,-0.7139 -0.98335,-2.35664 -0.89453,-3.56054 0.50691,-3.2822 1.93344,-6.31573 3.1289,-9.38672 3.39625,-8.31324 6.65723,-16.67728 10.1211,-24.96094 2.38665,0.0253 4.77932,0.0295 7.16601,0 0.57026,-1.46157 1.16448,-2.91047 1.75586,-4.35937 -2.38666,-0.0246 -4.7722,0.009 -7.15039,-0.0293 1.49533,-3.94119 3.15928,-7.8189 4.67578,-11.75586 -2.85978,-0.0253 -5.72449,-0.0253 -8.58008,0 -1.60097,3.92852 -3.1098,7.89435 -4.79101,11.78906 -2.49653,-0.0246 -4.99212,-0.0279 -7.48438,0.006 -0.58718,1.44891 -1.18651,2.89327 -1.71875,4.36328 2.45847,0.0129 4.91621,-0.0166 7.37891,0.0215 -2.53028,6.70382 -5.28905,13.3273 -8.01367,19.95508 -1.84177,1.45313 -2.73634,3.70022 -4.3711,5.34765 -2.55987,2.94004 -6.32044,5.45704 -10.39257,4.73047 3.13859,-6.5644 5.71565,-13.7157 5.34375,-21.09961 -0.16052,-3.57367 -1.98387,-7.28665 -5.3379,-8.84961 -4.7987,-2.27262 -10.64534,-0.93413 -14.73437,2.21289 -5.51259,4.22844 -8.96474,10.55709 -11.27539,16.98633 -0.24922,1.06028 -1.35966,1.49477 -1.875,2.39453 -1.5165,2.35288 -3.32109,4.56164 -5.56836,6.25977 -2.12477,1.6221 -4.85698,2.54805 -7.53516,2.11718 2.87248,-6.08284 5.27957,-12.60106 5.38086,-19.40624 0.1183,-3.33291 -0.80637,-6.93573 -3.3789,-9.2168 -2.78797,-2.47962 -6.8478,-2.8974 -10.375,-2.13281 -4.40584,0.95044 -8.05126,3.94395 -10.84766,7.36132 -3.56946,4.46921 -6.01429,9.75522 -7.64062,15.21289 -1.03491,3.62437 -1.81714,7.37886 -1.65235,11.16797 0.15209,3.07945 1.25022,6.3066 3.73828,8.2793 2.79217,2.35711 6.74672,2.55969 10.18946,1.89648 4.81557,-1.08984 8.67671,-4.5525 11.54492,-8.42187 1.86289,0.27526 3.7667,0.67504 5.64648,0.26953 3.84824,-0.51535 7.19856,-2.75349 9.90625,-5.43164 -0.21543,3.48497 0.005,7.30365 2.22656,10.17187 1.95156,2.58945 5.26352,3.87276 8.45704,3.72071 5.82096,0.16052 10.88106,-3.65411 14.25195,-8.09375 0.46046,-0.95467 1.55903,-0.42145 2.35742,-0.375 4.30866,0.7519 8.59224,-1.11928 11.93359,-3.73828 -0.53203,2.61055 -0.92456,5.40633 -0.084,8 0.69698,2.18814 2.77386,3.70015 5,4.05078 2.45004,0.34216 5.02008,0.19944 7.32227,-0.76367 3.55253,-1.3771 6.45331,-3.94555 9.09765,-6.61524 -0.79835,2.18814 -1.76929,4.30764 -2.55078,6.5 2.83865,0.0507 5.67665,0.0125 8.51953,0.0254 3.9792,-9.73255 7.9123,-19.48491 11.85352,-29.23437 0.68009,-1.82909 2.36583,-3.00091 3.78515,-4.23438 2.0572,-1.47847 4.38792,-3.09961 7.04493,-2.91797 1.16163,0.0127 2.18893,1.24619 1.72851,2.38672 -0.83217,3.29066 -2.31922,6.37515 -3.52734,9.53906 -2.04454,5.26338 -4.62098,10.4379 -5.29688,16.11524 -0.32103,2.32331 -0.10562,4.88245 1.27149,6.85937 1.42352,1.94313 3.98427,2.60141 6.29492,2.5 3.34556,0.0887 6.42873,-1.59998 8.98437,-3.61914 3.26533,-2.65703 5.90827,-5.97687 8.29493,-9.42382 1.61786,-2.45849 3.32878,-4.89212 4.61718,-7.54493 -0.55339,-1.40665 -2.04337,-2.07476 -3.36132,-2.56054 -3.32021,5.37318 -6.70074,10.84887 -11.37696,15.16601 -1.50803,1.26305 -3.27754,2.71049 -5.37695,2.45703 -1.16602,-0.0634 -1.52034,-1.4825 -1.48633,-2.4414 0.1225,-2.45848 0.97616,-4.80292 1.83789,-7.08399 1.84177,-4.61282 3.74161,-9.19998 5.5918,-13.80859 1.13631,-2.92737 2.20072,-5.93859 2.4668,-9.08984 0.0802,-1.9009 -0.57827,-3.9325 -2.10743,-5.14063 -1.82487,-1.52493 -4.37968,-1.68972 -6.62695,-1.29687 -3.48076,0.69277 -6.48479,2.76167 -9.07422,5.09765 2.68237,-6.82208 5.54273,-13.57185 8.14063,-20.42773 -1.3961,0.002 -2.79193,-0.008 -4.1875,-0.0117 z m -103.66993,21.02344 c 1.86709,0.055 2.82627,2.08694 2.87696,3.73437 0.2366,4.88741 -1.54255,9.56673 -3.13086,14.10352 -2.28529,-0.14786 -4.71685,1.02621 -5.46875,3.29883 -0.84061,1.86286 -0.0643,3.86122 0.99609,5.44531 -0.81528,1.79106 -2.25154,3.26121 -3.6582,4.61719 -1.3813,1.22922 -3.44666,2.34402 -5.27148,1.40624 -1.97273,-1.08983 -2.2894,-3.62864 -2.10352,-5.65624 0.41397,-4.0637 1.69405,-7.98401 3.16406,-11.77735 1.71504,-4.21998 3.75142,-8.3933 6.7168,-11.88672 1.50803,-1.67278 3.43734,-3.5217 5.8789,-3.28515 z m 40.97461,0 c 1.85862,0.0379 2.84707,2.05209 2.88086,3.69531 0.26608,4.90007 -1.52045,9.59701 -3.11718,14.14648 -2.06986,-0.1014 -4.32095,0.76496 -5.22071,2.7461 -1.12788,1.9558 -0.52785,4.35488 0.82813,6.02343 -1.25038,2.0234 -2.74994,3.94618 -4.69727,5.33594 -1.31372,0.90397 -3.178,1.47447 -4.60156,0.49024 -1.73616,-1.21657 -1.98116,-3.56663 -1.81641,-5.50977 0.42664,-4.06791 1.6993,-7.99183 3.17774,-11.78516 1.7108,-4.20731 3.74646,-8.36431 6.69922,-11.85351 1.49956,-1.67279 3.4298,-3.51294 5.86718,-3.28906 z"
       transform="matrix(0.26458333,0,0,0.26458333,-2.8673029e-6,1.4151748)"
       id="path104"
       inkscape:connector-curvature="0" />
    <path
       style="fill:#ffffff;stroke-width:0.11176538"
       inkscape:connector-curvature="0"
       d="m 25.988804,43.075041 c 0.533121,-0.162061 1.091948,0.413529 0.870652,0.938828 -0.168767,0.530884 -0.983537,0.611355 -1.260715,0.134117 -0.280531,-0.373297 -0.03912,-0.950005 0.390063,-1.072945 z"
       id="path106" />
  </g>
</svg>
