<?xml version="1.0" encoding="UTF-8" ?>
<!DOCTYPE svg PUBLIC "-//W3C//DTD SVG 1.1//EN" "http://www.w3.org/Graphics/SVG/1.1/DTD/svg11.dtd">
<svg width="1894pt" height="528pt" viewBox="0 0 1894 528" version="1.1" xmlns="http://www.w3.org/2000/svg">
<path fill="#ffffff" d=" M 0.00 0.00 L 1894.00 0.00 L 1894.00 528.00 L 0.00 528.00 L 0.00 0.00 Z" />
<path fill="#000000" d=" M 777.37 6.30 C 815.46 2.71 854.77 16.11 882.61 42.37 C 910.16 67.64 926.43 104.63 926.42 142.01 C 926.82 177.64 912.50 213.12 887.51 238.51 C 872.54 253.94 853.83 265.71 833.49 272.64 C 798.90 284.45 759.54 281.72 727.06 264.86 C 694.12 248.13 668.59 217.51 658.18 182.06 C 647.75 147.48 651.73 108.83 669.17 77.18 C 685.21 47.67 712.43 24.40 744.19 13.42 C 754.90 9.73 766.06 7.18 777.37 6.30 Z" />
<path fill="#000000" d=" M 1722.58 14.94 C 1724.99 41.03 1726.83 67.18 1729.09 93.28 C 1729.62 97.67 1729.39 102.14 1730.33 106.48 C 1730.56 107.47 1730.82 108.46 1731.12 109.45 C 1727.70 115.62 1724.97 122.17 1721.24 128.16 C 1715.55 118.04 1710.87 107.34 1704.81 97.43 C 1707.58 108.79 1712.27 119.60 1715.17 130.93 C 1692.38 124.50 1670.08 116.31 1647.26 110.00 C 1655.01 114.76 1663.41 118.38 1671.45 122.65 C 1684.40 129.43 1697.76 135.48 1710.45 142.75 C 1700.26 148.56 1689.45 153.23 1679.46 159.34 C 1690.77 156.65 1701.50 151.92 1712.78 149.04 C 1711.50 154.46 1709.50 159.66 1708.07 165.04 C 1707.52 164.42 1706.99 163.80 1706.48 163.19 C 1706.22 163.45 1705.70 163.95 1705.44 164.21 C 1694.62 173.83 1683.40 183.00 1672.43 192.45 C 1669.98 193.92 1672.14 196.72 1671.81 198.91 C 1671.65 203.29 1666.04 206.01 1662.41 203.69 C 1658.11 201.53 1658.13 194.59 1662.48 192.49 C 1664.86 190.74 1667.71 192.22 1670.16 193.00 C 1681.29 179.80 1692.72 166.83 1703.56 153.39 C 1693.39 156.38 1683.41 159.97 1673.31 163.18 C 1672.74 166.35 1670.81 170.20 1666.99 169.70 C 1661.46 169.80 1660.14 160.95 1665.28 159.26 C 1668.36 157.06 1671.10 162.14 1674.08 160.23 C 1680.99 156.41 1688.28 153.26 1694.95 149.01 C 1662.01 146.19 1629.05 143.45 1596.08 141.00 C 1626.82 138.19 1657.63 136.17 1688.36 133.21 C 1682.55 129.21 1675.86 126.73 1669.70 123.32 C 1658.81 117.81 1647.95 112.25 1637.04 106.79 C 1635.75 106.21 1634.67 105.30 1633.76 104.26 C 1641.33 105.97 1648.60 108.86 1656.06 111.02 C 1671.02 115.70 1685.92 120.63 1700.95 125.12 C 1690.86 112.91 1680.53 100.89 1670.22 88.87 C 1667.43 89.73 1663.84 90.82 1661.43 88.55 C 1658.33 86.19 1658.46 80.89 1661.57 78.59 C 1664.36 76.39 1668.97 77.01 1670.90 80.08 C 1672.58 82.47 1671.54 85.51 1671.02 88.10 C 1684.29 99.27 1697.30 110.77 1710.79 121.67 C 1707.78 111.45 1704.25 101.39 1700.97 91.25 C 1698.06 90.72 1694.24 89.53 1694.22 85.92 C 1693.33 81.64 1698.82 78.15 1702.34 80.62 C 1705.96 82.49 1705.19 87.41 1703.03 90.12 C 1706.73 97.46 1710.45 104.79 1714.42 111.98 C 1715.73 106.58 1715.36 100.97 1716.16 95.50 C 1718.18 68.64 1720.69 41.80 1722.58 14.94 Z" />
<path fill="#494949" d=" M 1750.46 67.60 C 1753.45 62.32 1755.38 56.38 1759.21 51.63 C 1759.38 54.93 1757.97 57.99 1757.05 61.08 C 1753.10 73.47 1749.20 85.88 1745.27 98.27 C 1743.42 104.50 1741.03 110.58 1739.79 116.97 C 1738.91 117.89 1737.82 118.60 1736.92 119.46 C 1741.89 101.78 1748.25 84.51 1753.10 66.80 C 1745.37 80.80 1738.70 95.37 1731.12 109.45 C 1730.82 108.46 1730.56 107.47 1730.33 106.48 C 1737.71 93.90 1743.63 80.49 1750.46 67.60 Z" />
<path fill="#ffffff" d=" M 823.00 56.85 C 830.67 53.90 840.38 55.82 845.57 62.44 C 849.93 67.74 850.23 75.23 848.50 81.61 C 840.96 110.32 833.41 139.03 825.84 167.73 C 825.46 169.17 825.31 170.64 825.17 172.12 C 831.66 173.29 838.65 171.91 843.97 167.94 C 850.32 163.24 854.89 156.64 859.16 150.09 C 861.40 151.10 863.41 152.55 865.25 154.18 C 860.76 162.65 855.60 170.97 848.60 177.61 C 843.91 182.17 837.57 184.98 831.04 185.33 C 827.77 185.49 824.51 185.25 821.25 185.30 C 817.82 197.22 815.01 209.32 811.68 221.27 C 805.85 217.76 800.14 214.04 794.45 210.31 C 794.16 207.51 795.65 204.82 796.20 202.09 C 798.03 194.57 800.70 187.22 801.92 179.57 C 792.13 175.59 782.97 170.25 773.32 166.02 C 766.20 176.40 757.97 186.72 746.40 192.33 C 737.53 196.76 727.13 197.73 717.48 195.71 C 708.32 193.76 699.91 187.55 696.38 178.74 C 692.54 169.10 693.92 157.50 700.07 149.11 C 705.18 142.05 713.24 137.51 721.75 135.97 C 732.90 134.06 744.42 135.97 754.85 140.12 C 758.39 141.37 761.68 143.36 765.41 144.01 C 776.88 124.91 788.16 105.70 799.55 86.56 C 803.44 80.12 806.96 73.44 811.24 67.24 C 814.30 62.98 817.98 58.78 823.00 56.85 Z" />
<path fill="#000000" d=" M 323.20 59.89 C 336.13 59.56 349.08 59.78 362.00 60.17 C 390.33 60.26 418.66 60.58 447.00 60.73 C 450.22 60.81 453.58 60.39 456.65 61.62 C 456.39 65.29 455.83 68.92 455.38 72.56 C 459.05 72.62 462.71 72.62 466.38 72.70 C 459.94 126.72 453.37 180.74 447.20 234.79 C 419.92 233.90 392.69 231.84 365.42 230.52 C 364.86 227.84 364.39 225.14 363.84 222.47 C 360.11 222.32 356.37 222.24 352.70 221.55 C 343.44 172.55 334.47 123.48 325.33 74.45 C 324.55 69.61 323.10 64.83 323.20 59.89 Z" />
<path fill="#000000" d=" M 485.25 60.15 C 492.44 59.17 499.75 60.04 507.00 59.81 C 542.99 60.47 579.01 60.42 615.02 60.78 C 616.30 60.91 617.58 61.17 618.83 61.57 C 618.56 65.25 618.13 68.93 617.69 72.60 C 621.31 72.60 624.93 72.64 628.55 72.67 C 622.18 126.74 615.67 180.79 609.34 234.86 C 582.08 233.80 554.86 231.89 527.62 230.52 C 527.10 227.85 526.57 225.19 526.16 222.52 C 522.38 222.28 518.56 222.27 514.84 221.50 C 505.60 171.58 496.31 121.66 487.06 71.74 C 486.37 67.89 485.39 64.07 485.25 60.15 Z" />
<path fill="#000000" d=" M 938.23 60.07 C 945.45 59.26 952.75 60.00 960.00 59.81 C 995.99 60.47 1032.01 60.41 1068.01 60.79 C 1069.28 60.90 1070.52 61.17 1071.75 61.60 C 1071.50 65.27 1070.99 68.91 1070.51 72.55 C 1074.17 72.63 1077.83 72.61 1081.50 72.72 C 1075.05 126.75 1068.54 180.77 1062.28 234.82 C 1035.01 233.84 1007.79 231.88 980.54 230.51 C 979.99 227.84 979.48 225.17 979.03 222.48 C 975.26 222.31 971.47 222.25 967.77 221.51 C 958.62 172.49 949.56 123.45 940.46 74.43 C 939.69 69.65 938.29 64.94 938.23 60.07 Z" />
<path fill="#000000" d=" M 1100.53 59.80 C 1113.01 59.71 1125.52 59.66 1138.00 60.16 C 1166.33 60.25 1194.66 60.55 1223.00 60.73 C 1226.58 60.76 1230.22 60.54 1233.77 61.31 C 1233.75 65.08 1233.22 68.82 1233.02 72.58 C 1236.55 72.61 1240.09 72.64 1243.64 72.67 C 1237.34 126.75 1230.82 180.81 1224.43 234.88 C 1197.19 233.78 1169.99 231.87 1142.77 230.54 C 1142.24 227.86 1141.70 225.18 1141.25 222.48 C 1137.52 222.31 1133.77 222.24 1130.10 221.58 C 1120.15 169.44 1110.74 117.20 1100.90 65.05 C 1100.52 63.32 1100.47 61.56 1100.53 59.80 Z" />
<path fill="#000000" d=" M 1261.55 59.82 C 1274.03 59.69 1286.53 59.68 1299.00 60.16 C 1327.33 60.25 1355.66 60.55 1384.00 60.73 C 1387.60 60.76 1391.26 60.54 1394.83 61.28 C 1394.84 65.07 1394.31 68.82 1394.05 72.59 C 1397.59 72.60 1401.14 72.64 1404.70 72.66 C 1398.48 126.76 1391.92 180.82 1385.49 234.89 C 1358.24 233.73 1331.02 231.94 1303.79 230.48 C 1303.34 227.80 1302.80 225.14 1302.33 222.47 C 1298.63 222.32 1294.92 222.24 1291.27 221.61 C 1281.78 172.78 1273.06 123.78 1263.86 74.88 C 1263.12 69.86 1261.53 64.93 1261.55 59.82 Z" />
<path fill="#000000" d=" M 1423.59 60.99 C 1423.94 60.69 1424.64 60.09 1425.00 59.79 C 1436.99 59.73 1449.01 59.66 1461.00 60.16 C 1492.32 60.29 1523.64 60.56 1554.97 60.82 C 1556.70 60.59 1557.70 62.44 1557.15 63.94 C 1556.79 66.82 1556.41 69.69 1556.17 72.58 C 1559.72 72.61 1563.27 72.64 1566.83 72.66 C 1560.84 126.76 1554.10 180.79 1547.73 234.85 C 1520.49 233.81 1493.31 231.87 1466.09 230.52 C 1465.52 227.83 1465.04 225.13 1464.50 222.44 C 1460.80 222.33 1457.10 222.23 1453.46 221.59 C 1443.24 168.11 1433.45 114.54 1423.59 60.99 Z" />
<path fill="#ffffff" d=" M 326.48 63.14 C 368.65 63.44 410.83 63.46 452.99 64.21 C 447.10 117.14 440.45 169.99 434.34 222.89 C 422.88 222.77 411.47 221.67 400.03 221.28 C 385.15 220.20 370.23 219.81 355.36 218.63 C 345.69 166.80 336.14 114.96 326.48 63.14 Z" />
<path fill="#ffffff" d=" M 488.81 63.15 C 531.01 63.43 573.23 63.48 615.41 64.20 C 609.05 117.09 602.86 170.00 596.52 222.90 C 578.76 222.45 561.05 220.95 543.31 220.22 C 534.74 219.44 526.13 219.52 517.58 218.62 C 508.01 166.79 498.23 115.00 488.81 63.15 Z" />
<path fill="#ffffff" d=" M 941.60 63.16 C 983.84 63.43 1026.09 63.46 1068.32 64.22 C 1061.95 117.11 1055.74 170.01 1049.43 222.90 C 1026.24 222.15 1003.10 220.35 979.93 219.31 C 976.77 219.24 973.63 218.84 970.49 218.62 C 960.82 166.81 951.28 114.97 941.60 63.16 Z" />
<path fill="#ffffff" d=" M 1103.99 63.16 C 1146.16 63.41 1188.34 63.50 1230.49 64.18 C 1224.24 117.09 1217.97 170.00 1211.64 222.90 C 1200.07 222.75 1188.56 221.66 1177.01 221.26 C 1162.24 220.17 1147.43 219.82 1132.68 218.61 C 1123.21 166.77 1113.28 115.02 1103.99 63.16 Z" />
<path fill="#ffffff" d=" M 1265.04 63.15 C 1307.21 63.39 1349.39 63.54 1391.55 64.15 C 1385.40 117.08 1379.04 169.99 1372.73 222.89 C 1361.13 222.76 1349.59 221.65 1338.01 221.25 C 1323.27 220.16 1308.48 219.83 1293.75 218.60 C 1284.29 166.76 1274.42 115.00 1265.04 63.15 Z" />
<path fill="#ffffff" d=" M 1427.18 63.16 C 1469.35 63.37 1511.53 63.57 1553.69 64.13 C 1547.87 117.07 1540.97 169.90 1535.15 222.83 C 1523.74 222.86 1512.39 221.65 1501.00 221.29 C 1486.01 220.18 1470.97 219.85 1456.00 218.59 C 1446.44 166.77 1436.77 114.97 1427.18 63.16 Z" />
<path fill="#ffffff" d=" M 1731.12 109.45 C 1738.70 95.37 1745.37 80.80 1753.10 66.80 C 1748.25 84.51 1741.89 101.78 1736.92 119.46 C 1735.54 124.03 1733.87 128.52 1732.86 133.19 C 1736.10 132.40 1739.28 131.31 1742.48 130.30 C 1750.46 128.03 1758.19 124.91 1766.24 122.88 C 1760.87 126.21 1755.07 128.77 1749.57 131.88 C 1745.02 134.37 1740.34 136.62 1735.84 139.19 C 1741.85 142.97 1748.44 145.67 1754.63 149.14 C 1768.69 156.73 1783.25 163.38 1797.23 171.12 C 1780.67 166.71 1764.60 160.65 1748.10 156.06 C 1742.40 154.43 1736.84 152.30 1731.07 150.94 C 1734.22 162.62 1738.85 173.86 1741.92 185.56 C 1735.56 175.14 1730.97 163.73 1724.53 153.36 C 1720.81 159.96 1717.70 166.87 1714.12 173.54 C 1706.61 186.92 1700.60 201.11 1692.88 214.36 C 1697.38 197.76 1703.30 181.57 1708.07 165.04 C 1709.50 159.66 1711.50 154.46 1712.78 149.04 C 1701.50 151.92 1690.77 156.65 1679.46 159.34 C 1689.45 153.23 1700.26 148.56 1710.45 142.75 C 1697.76 135.48 1684.40 129.43 1671.45 122.65 C 1663.41 118.38 1655.01 114.76 1647.26 110.00 C 1670.08 116.31 1692.38 124.50 1715.17 130.93 C 1712.27 119.60 1707.58 108.79 1704.81 97.43 C 1710.87 107.34 1715.55 118.04 1721.24 128.16 C 1724.97 122.17 1727.70 115.62 1731.12 109.45 Z" />
<path fill="#000000" d=" M 1774.39 80.44 C 1776.32 76.79 1781.99 76.13 1784.62 79.37 C 1787.24 81.97 1786.74 86.62 1783.79 88.76 C 1781.45 90.70 1778.22 89.67 1775.60 89.11 C 1764.58 101.91 1753.57 114.77 1742.81 127.78 C 1742.65 128.62 1742.55 129.46 1742.48 130.30 C 1739.28 131.31 1736.10 132.40 1732.86 133.19 C 1733.87 128.52 1735.54 124.03 1736.92 119.46 C 1737.82 118.60 1738.91 117.89 1739.79 116.97 C 1741.36 116.79 1742.61 115.75 1743.78 114.75 C 1754.10 105.86 1764.53 97.10 1774.89 88.26 C 1773.86 85.83 1772.60 82.85 1774.39 80.44 Z" />
<path fill="#000000" d=" M 825.13 78.73 C 826.75 79.13 829.84 79.50 829.10 81.90 C 821.42 109.80 813.99 137.77 806.00 165.57 C 797.30 162.43 789.32 157.52 781.29 152.99 C 785.78 143.86 791.58 135.43 796.60 126.59 C 806.11 110.63 815.60 94.67 825.13 78.73 Z" />
<path fill="#ffffff" d=" M 1697.24 81.89 C 1699.65 80.28 1703.71 81.89 1703.60 85.03 C 1704.14 88.20 1699.97 90.69 1697.42 88.77 C 1694.90 87.41 1694.81 83.42 1697.24 81.89 Z" />
<path fill="#000000" d=" M 1332.32 87.57 C 1340.15 103.24 1346.38 119.67 1353.36 135.73 C 1359.40 149.89 1365.18 164.19 1371.75 178.12 C 1368.94 180.53 1366.17 182.99 1363.25 185.26 C 1358.62 174.07 1354.43 162.69 1349.50 151.63 C 1337.97 152.51 1326.40 152.80 1314.87 153.61 C 1311.12 164.18 1307.69 174.86 1303.96 185.43 C 1301.17 183.32 1298.51 181.06 1295.79 178.88 C 1308.20 148.54 1319.85 117.89 1332.32 87.57 Z" />
<path fill="#000000" d=" M 536.61 93.53 C 550.32 93.03 564.00 91.99 577.69 91.18 C 578.01 94.57 578.28 97.96 578.30 101.36 C 568.42 101.56 558.55 101.69 548.68 101.90 C 548.60 112.89 548.65 123.88 548.65 134.87 C 557.14 134.79 565.63 134.43 574.08 133.61 C 574.23 136.99 574.34 140.38 574.35 143.77 C 565.78 143.69 557.22 143.47 548.65 143.41 C 548.65 153.99 548.59 164.57 548.68 175.16 C 559.04 175.31 569.40 175.31 579.74 174.71 C 580.16 178.38 580.31 182.07 580.38 185.77 C 566.00 185.57 551.63 185.01 537.26 184.54 L 536.67 183.95 C 536.94 153.82 536.90 123.67 536.61 93.53 Z" />
<path fill="#000000" d=" M 991.50 109.53 C 999.61 99.63 1011.69 93.62 1023.98 90.79 C 1024.83 94.03 1025.73 97.27 1026.67 100.49 C 1018.17 102.76 1009.10 105.28 1002.78 111.78 C 999.84 114.69 998.24 119.60 1000.73 123.29 C 1004.26 128.60 1010.50 130.97 1015.71 134.26 C 1021.50 137.79 1028.28 141.21 1030.95 147.88 C 1033.40 154.92 1031.04 162.79 1026.35 168.35 C 1018.20 178.24 1005.82 183.30 993.72 186.46 C 992.38 183.27 991.30 179.99 990.19 176.73 C 999.34 174.49 1009.06 171.75 1015.86 164.84 C 1020.10 160.64 1020.31 153.26 1015.95 149.07 C 1007.91 141.51 995.79 139.04 989.37 129.61 C 985.03 123.43 986.93 115.01 991.50 109.53 Z" />
<path fill="#000000" d=" M 371.14 93.15 C 381.44 93.15 391.88 93.39 401.91 95.99 C 407.33 97.51 413.00 99.89 416.27 104.71 C 420.31 110.73 419.16 119.17 414.62 124.60 C 411.55 128.73 406.96 131.21 402.71 133.94 C 409.66 135.66 416.72 139.16 420.40 145.59 C 424.09 151.62 423.22 159.60 419.38 165.35 C 413.97 173.68 404.73 178.63 395.47 181.50 C 387.61 183.95 379.35 184.88 371.14 184.82 C 371.68 154.26 371.84 123.70 371.14 93.15 Z" />
<path fill="#000000" d=" M 1127.33 94.40 C 1140.52 95.55 1153.77 95.66 1167.00 95.78 C 1182.18 95.77 1197.38 95.69 1212.51 94.40 C 1212.51 98.05 1212.52 101.70 1212.49 105.34 C 1200.27 104.28 1187.98 104.42 1175.72 104.26 C 1175.50 131.37 1175.94 158.49 1177.34 185.57 C 1172.68 185.62 1168.03 185.59 1163.39 185.59 C 1164.07 170.40 1163.53 155.19 1164.15 140.00 C 1164.04 128.10 1164.38 116.18 1163.98 104.28 C 1151.77 104.38 1139.52 104.24 1127.36 105.37 C 1127.30 101.71 1127.31 98.05 1127.33 94.40 Z" />
<path fill="#000000" d=" M 1461.44 94.56 C 1471.91 94.56 1482.43 94.87 1492.78 96.55 C 1500.20 97.99 1508.22 100.77 1512.65 107.32 C 1516.96 113.77 1515.56 122.39 1511.77 128.74 C 1508.35 134.71 1502.77 138.93 1497.24 142.80 C 1507.14 155.31 1517.14 167.76 1527.40 179.99 C 1524.23 182.69 1520.92 185.21 1517.74 187.89 C 1505.98 172.86 1494.43 157.66 1483.14 142.27 C 1489.54 138.63 1496.06 134.37 1499.81 127.82 C 1502.14 123.79 1503.43 118.73 1501.84 114.22 C 1500.48 110.51 1497.09 108.00 1493.56 106.54 C 1487.29 103.95 1480.42 103.39 1473.72 103.28 C 1473.58 130.71 1473.49 158.16 1474.31 185.58 C 1470.12 185.61 1465.94 185.61 1461.76 185.57 C 1462.02 171.05 1462.52 156.52 1461.87 142.00 C 1461.82 126.19 1461.92 110.37 1461.44 94.56 Z" />
<path fill="#000000" d=" M 215.44 100.94 C 219.62 149.41 223.12 197.94 227.48 246.39 C 242.12 217.68 256.75 188.97 271.07 160.10 C 271.50 160.39 272.37 160.97 272.81 161.26 C 265.96 182.08 259.55 203.04 252.87 223.92 C 248.76 237.22 244.30 250.42 240.41 263.79 C 244.91 260.56 248.94 256.73 253.21 253.22 C 267.82 240.83 282.38 228.38 297.02 216.02 C 294.69 212.23 293.45 207.16 296.44 203.34 C 300.12 197.49 309.90 197.76 313.16 203.88 C 316.57 209.07 313.59 216.91 307.60 218.52 C 304.33 219.48 301.03 218.40 298.07 217.03 C 284.99 232.61 271.75 248.07 258.60 263.58 C 254.27 268.91 249.49 273.88 245.47 279.45 C 261.60 274.54 277.51 268.93 293.60 263.88 C 293.84 260.28 294.63 256.05 298.24 254.33 C 303.33 251.24 310.81 255.17 310.79 261.21 C 311.39 266.11 306.85 270.60 302.01 270.31 C 299.33 270.25 297.19 268.44 295.11 266.98 C 283.56 273.13 271.72 278.77 260.38 285.29 C 296.90 288.58 333.49 291.25 370.03 294.36 C 384.70 295.30 399.33 297.14 414.02 297.66 C 365.52 301.88 316.95 305.41 268.45 309.72 C 286.75 319.60 305.53 328.60 324.03 338.12 C 334.35 343.54 344.99 348.38 355.12 354.15 C 354.38 354.29 352.91 354.58 352.17 354.72 C 318.41 344.07 284.71 333.20 250.88 322.76 C 266.35 341.73 282.54 360.13 298.26 378.90 C 301.77 377.29 306.10 376.25 309.61 378.45 C 314.56 381.16 316.18 388.31 312.78 392.85 C 309.04 398.65 299.14 398.24 295.99 392.05 C 293.44 388.24 294.95 383.61 297.05 380.01 C 276.38 362.62 256.00 344.88 235.21 327.65 C 239.97 343.10 245.25 358.40 250.19 373.80 C 250.76 377.20 255.16 375.80 257.22 377.73 C 262.54 381.19 261.55 390.32 255.54 392.46 C 250.38 395.03 243.83 390.59 243.70 384.99 C 243.42 381.82 245.57 379.26 247.60 377.11 C 242.78 367.99 238.03 358.85 233.31 349.68 C 231.68 346.58 230.29 343.32 228.04 340.60 C 224.03 392.44 219.69 444.27 215.47 496.10 C 215.34 486.68 213.82 477.35 213.38 467.94 C 210.03 428.97 207.24 389.95 203.68 351.01 C 188.98 379.66 174.81 408.60 159.88 437.13 C 159.72 436.41 159.39 434.98 159.23 434.26 C 169.78 400.44 180.78 366.75 191.11 332.87 C 172.08 348.54 153.41 364.69 134.67 380.71 C 135.49 382.74 136.67 384.75 136.60 387.02 C 136.75 391.63 133.24 396.06 128.67 396.82 C 123.06 398.27 117.09 393.69 116.65 388.00 C 116.09 382.65 120.61 377.25 126.05 377.21 C 128.84 376.89 131.31 378.35 133.72 379.51 C 151.05 358.61 168.97 338.18 186.28 317.26 C 170.39 322.28 154.56 327.55 138.74 332.80 C 137.52 334.54 137.90 336.96 136.78 338.79 C 134.20 343.71 126.44 344.32 123.00 340.02 C 119.07 335.69 121.29 327.47 127.23 326.32 C 130.89 325.35 134.47 327.03 136.90 329.73 C 145.60 325.15 154.36 320.68 163.06 316.10 C 166.28 314.35 169.72 312.95 172.67 310.73 C 121.10 306.25 69.50 302.18 17.90 298.07 C 66.40 294.24 114.89 290.32 163.37 286.22 C 135.55 271.74 107.46 257.74 79.46 243.61 C 78.51 243.05 77.99 242.19 77.90 241.01 C 112.59 251.51 147.00 263.00 181.68 273.56 C 166.10 254.26 149.50 235.76 133.75 216.59 C 131.31 217.78 128.78 219.19 125.96 218.84 C 120.86 218.85 116.54 213.97 116.63 208.98 C 116.53 203.60 121.56 198.58 127.03 199.14 C 132.24 199.00 136.73 203.85 136.60 208.98 C 136.60 211.35 135.21 213.44 135.08 215.79 C 155.68 233.39 176.24 251.08 197.09 268.38 C 192.52 252.23 186.61 236.47 181.76 220.39 C 179.11 219.94 176.05 220.00 173.98 218.01 C 169.67 214.52 170.40 206.80 175.33 204.22 C 179.83 201.59 186.54 203.97 187.72 209.23 C 189.15 212.76 186.86 216.20 184.77 218.89 C 190.91 230.63 196.91 242.44 203.14 254.13 C 207.13 206.44 210.90 158.74 214.84 111.05 C 215.39 107.70 215.43 104.32 215.44 100.94 Z" />
<path fill="#ffffff" d=" M 382.72 101.41 C 389.50 101.62 396.86 102.32 402.47 106.52 C 407.15 110.02 407.67 117.05 404.69 121.82 C 400.21 129.30 391.17 132.85 382.73 132.90 C 382.68 122.40 382.71 111.91 382.72 101.41 Z" />
<path fill="#ffffff" d=" M 1318.46 144.81 C 1323.10 132.81 1327.05 120.51 1332.16 108.71 C 1337.66 119.92 1341.73 131.83 1346.61 143.35 C 1337.22 143.85 1327.86 144.64 1318.46 144.81 Z" />
<path fill="#2d2d2d" d=" M 1774.56 113.55 C 1777.13 110.91 1782.41 111.81 1783.62 115.43 C 1784.88 118.47 1783.09 122.26 1779.83 123.00 C 1777.02 124.17 1774.59 120.14 1771.94 121.99 C 1765.23 125.45 1758.54 128.95 1751.86 132.47 C 1751.29 132.32 1750.15 132.03 1749.57 131.88 C 1755.07 128.77 1760.87 126.21 1766.24 122.88 C 1758.19 124.91 1750.46 128.03 1742.48 130.30 C 1742.55 129.46 1742.65 128.62 1742.81 127.78 C 1745.87 127.91 1748.73 126.65 1751.60 125.74 C 1758.57 123.43 1765.55 121.15 1772.52 118.85 C 1773.03 117.05 1773.12 114.93 1774.56 113.55 Z" />
<path fill="#ffffff" d=" M 1776.42 114.20 C 1779.26 112.10 1783.58 115.57 1782.22 118.81 C 1781.33 121.89 1776.61 122.51 1775.12 119.63 C 1773.82 117.88 1774.61 115.25 1776.42 114.20 Z" />
<path fill="#000000" d=" M 1735.84 139.19 C 1740.34 136.62 1745.02 134.37 1749.57 131.88 C 1750.15 132.03 1751.29 132.32 1751.86 132.47 C 1761.30 134.06 1770.95 134.06 1780.47 135.14 C 1803.66 136.85 1826.82 139.12 1850.02 140.65 C 1824.02 142.88 1798.00 144.87 1772.00 147.06 C 1767.00 147.64 1761.92 147.43 1757.01 148.56 C 1756.42 148.70 1755.23 148.99 1754.63 149.14 C 1748.44 145.67 1741.85 142.97 1735.84 139.19 Z" />
<path fill="#ffffff" d=" M 382.78 140.36 C 390.88 140.17 399.98 140.99 406.15 146.85 C 411.41 151.54 410.49 160.16 406.17 165.15 C 400.42 171.99 391.27 174.48 382.74 175.54 C 382.71 163.81 382.64 152.08 382.78 140.36 Z" />
<path fill="#4e4e4e" d=" M 1754.63 149.14 C 1755.23 148.99 1756.42 148.70 1757.01 148.56 C 1774.66 157.29 1792.15 166.35 1809.76 175.17 C 1810.95 175.65 1811.67 176.74 1812.43 177.76 C 1804.26 175.98 1796.45 172.86 1788.44 170.52 C 1776.81 166.87 1765.21 163.12 1753.57 159.52 C 1751.34 158.79 1748.97 158.23 1747.14 156.71 L 1748.10 156.06 C 1764.60 160.65 1780.67 166.71 1797.23 171.12 C 1783.25 163.38 1768.69 156.73 1754.63 149.14 Z" />
<path fill="#000000" d=" M 718.14 154.16 C 724.24 150.37 731.90 150.08 738.78 151.49 C 745.05 152.77 751.28 154.71 756.85 157.94 C 751.88 166.87 744.32 174.82 734.83 178.92 C 727.37 182.26 717.29 180.17 712.98 172.89 C 709.29 166.57 712.07 157.93 718.14 154.16 Z" />
<path fill="#000000" d=" M 1731.07 150.94 C 1736.84 152.30 1742.40 154.43 1748.10 156.06 L 1747.14 156.71 C 1746.82 156.94 1746.17 157.39 1745.85 157.62 C 1755.91 169.24 1765.80 181.03 1775.74 192.76 C 1777.93 192.17 1780.45 190.89 1782.64 192.30 C 1786.55 193.91 1787.60 199.62 1784.53 202.53 C 1781.82 205.60 1776.43 204.96 1774.45 201.42 C 1772.55 198.92 1773.99 195.88 1774.85 193.30 C 1761.61 182.50 1749.02 170.87 1735.55 160.37 C 1738.49 170.51 1742.10 180.45 1745.22 190.54 C 1748.36 191.12 1752.17 193.11 1751.69 196.90 C 1751.70 202.38 1742.93 203.82 1741.26 198.62 C 1739.71 196.03 1741.97 193.51 1743.04 191.24 C 1739.05 183.73 1735.24 176.13 1731.21 168.65 C 1729.77 174.29 1729.95 180.23 1729.35 186.00 C 1726.92 213.24 1725.17 240.55 1722.49 267.75 C 1720.62 238.13 1717.67 208.56 1715.52 178.95 C 1715.21 177.10 1714.66 175.32 1714.12 173.54 C 1717.70 166.87 1720.81 159.96 1724.53 153.36 C 1730.97 163.73 1735.56 175.14 1741.92 185.56 C 1738.85 173.86 1734.22 162.62 1731.07 150.94 Z" />
<path fill="#fefefe" d=" M 1666.36 160.34 C 1670.22 159.10 1673.34 164.57 1670.17 167.17 C 1668.12 169.71 1663.56 168.02 1663.36 164.92 C 1662.88 162.91 1664.33 160.71 1666.36 160.34 Z" />
<path fill="#535353" d=" M 1706.48 163.19 C 1706.99 163.80 1707.52 164.42 1708.07 165.04 C 1703.30 181.57 1697.38 197.76 1692.88 214.36 C 1700.60 201.11 1706.61 186.92 1714.12 173.54 C 1714.66 175.32 1715.21 177.10 1715.52 178.95 C 1715.20 177.98 1714.90 177.02 1714.60 176.07 C 1706.07 193.32 1697.20 210.41 1688.63 227.64 C 1688.15 228.87 1687.02 229.56 1686.04 230.29 C 1687.68 222.38 1690.73 214.83 1692.99 207.08 C 1696.69 195.39 1700.36 183.70 1704.09 172.02 C 1704.82 169.48 1706.10 166.91 1705.44 164.21 C 1705.70 163.95 1706.22 163.45 1706.48 163.19 Z" />
<path fill="#ffffff" d=" M 261.69 183.69 C 262.71 181.65 263.74 179.60 265.00 177.69 C 264.64 179.42 264.17 181.12 263.64 182.81 C 253.80 213.88 243.98 244.95 234.15 276.03 C 233.12 279.35 231.84 282.62 231.41 286.09 C 232.71 285.84 234.01 285.53 235.29 285.18 C 252.90 279.51 270.39 273.48 288.06 268.04 C 270.96 277.39 253.40 285.91 236.29 295.25 C 237.20 296.17 238.12 297.11 239.32 297.65 C 269.46 312.83 299.49 328.20 329.63 343.37 C 331.94 344.53 334.28 345.65 336.43 347.11 C 332.83 346.50 329.39 345.24 325.92 344.16 C 295.29 334.42 264.63 324.78 234.01 315.04 C 232.30 314.49 230.54 314.15 228.78 313.85 C 230.19 321.03 233.09 327.80 235.18 334.79 C 238.75 346.31 243.06 357.62 246.12 369.28 C 237.25 353.16 229.11 336.64 220.51 320.37 C 219.87 319.38 219.14 318.45 218.26 317.68 C 206.07 341.12 194.31 364.79 182.34 388.34 C 177.10 398.32 172.48 408.66 166.82 418.41 C 167.50 414.53 168.88 410.83 170.05 407.09 C 179.03 378.72 187.98 350.35 196.96 321.98 C 198.08 318.28 199.58 314.66 199.96 310.78 C 195.17 311.70 190.64 313.56 186.00 315.01 C 171.93 319.57 157.92 324.32 143.81 328.75 C 160.88 319.36 178.43 310.83 195.55 301.56 C 196.41 300.16 194.97 299.64 193.96 299.11 C 160.58 282.17 127.12 265.38 93.83 248.26 C 129.38 259.20 164.77 270.68 200.27 281.81 C 201.46 282.14 202.68 282.33 203.93 282.38 C 198.57 263.65 191.66 245.37 186.17 226.67 C 195.53 243.56 203.88 261.01 213.15 277.95 C 214.10 276.98 215.04 275.98 215.64 274.75 C 230.92 244.37 246.42 214.09 261.69 183.69 Z" />
<path fill="#ffffff" d=" M 1744.23 192.89 C 1746.66 191.49 1750.04 193.28 1750.38 196.06 C 1750.78 199.19 1746.95 201.77 1744.23 200.11 C 1741.55 198.67 1741.56 194.34 1744.23 192.89 Z" />
<path fill="#ffffff" d=" M 177.50 205.58 C 181.54 204.11 186.45 207.50 185.81 211.93 C 186.05 217.07 179.15 219.75 175.50 216.48 C 171.74 213.62 172.97 206.92 177.50 205.58 Z" />
<path fill="#ffffff" d=" M 299.35 256.20 C 303.08 253.86 308.52 256.85 308.67 261.20 C 309.10 264.28 306.81 267.29 303.82 267.94 C 300.96 268.86 297.98 266.91 296.55 264.50 C 295.53 261.51 296.24 257.62 299.35 256.20 Z" />
<path fill="#000000" d=" M 457.83 321.79 C 470.82 311.51 487.45 305.97 504.00 306.19 C 519.48 305.83 535.30 310.72 547.19 320.80 C 559.25 330.83 566.64 346.27 566.72 361.97 C 567.17 378.61 560.68 395.22 549.45 407.46 C 538.98 418.93 523.63 426.04 508.01 425.62 C 498.03 425.72 488.45 422.50 479.36 418.69 C 472.34 436.20 465.26 453.68 458.29 471.21 C 457.75 472.21 457.50 474.14 455.92 473.81 C 449.59 473.84 443.26 473.84 436.93 473.77 C 452.33 435.25 467.88 396.78 483.37 358.29 C 488.57 345.57 499.87 333.49 514.45 333.20 C 515.69 337.25 517.08 341.27 517.97 345.42 C 514.05 347.48 510.46 350.22 507.73 353.74 C 501.92 360.74 499.47 369.66 495.91 377.86 C 492.27 387.15 488.13 396.25 484.83 405.66 C 495.18 410.57 507.45 412.45 518.36 408.26 C 541.56 399.61 554.14 370.22 544.50 347.44 C 539.34 334.59 527.18 325.09 513.58 322.79 C 503.88 321.40 493.74 321.92 484.51 325.40 C 468.92 331.02 456.35 343.95 450.49 359.38 C 448.52 364.68 447.26 370.33 447.51 376.02 C 447.64 381.95 449.67 387.61 451.99 393.00 C 447.40 396.39 442.94 399.96 438.21 403.15 C 432.08 392.28 429.40 379.35 431.43 366.99 C 433.86 349.23 443.78 332.82 457.83 321.79 Z" />
<path fill="#000000" d=" M 997.10 320.09 C 1009.82 310.36 1026.06 305.77 1041.99 306.19 C 1058.02 305.96 1074.66 312.47 1084.50 325.48 C 1096.57 341.07 1097.46 365.78 1083.50 380.50 C 1077.26 387.14 1068.80 391.24 1060.10 393.57 C 1070.52 400.21 1078.44 410.91 1080.90 423.11 C 1083.54 436.74 1080.67 451.39 1072.96 462.96 C 1067.89 470.57 1060.47 476.71 1051.78 479.71 C 1040.24 483.77 1027.23 482.97 1016.07 478.06 C 1006.88 474.09 998.85 468.02 990.93 462.01 C 984.45 468.83 976.63 474.79 967.38 477.19 C 958.65 479.41 948.99 479.23 940.77 475.27 C 934.48 472.17 929.42 466.44 927.54 459.63 C 924.66 450.06 928.17 439.15 935.56 432.56 C 942.17 426.79 951.48 424.73 960.05 426.01 C 969.38 427.31 977.59 432.40 985.18 437.69 C 990.41 429.29 994.26 420.14 997.98 411.00 C 1004.10 395.81 1010.21 380.61 1016.33 365.43 C 1019.33 357.36 1022.90 349.25 1029.09 343.08 C 1034.66 337.39 1042.21 333.23 1050.33 333.21 C 1051.51 337.26 1052.84 341.27 1053.90 345.36 C 1045.65 349.45 1039.96 357.29 1036.68 365.71 C 1034.76 370.90 1032.25 375.91 1030.88 381.29 C 1045.20 385.89 1063.15 381.60 1071.21 368.19 C 1077.18 358.18 1076.70 344.65 1069.77 335.23 C 1064.71 328.25 1056.48 324.21 1048.15 322.72 C 1037.33 321.24 1025.90 322.12 1016.00 327.02 C 1000.12 334.62 989.09 351.37 988.26 368.93 C 987.73 376.11 989.72 383.13 992.47 389.68 C 987.57 392.95 983.07 396.78 978.14 400.01 C 972.35 388.32 970.08 374.85 972.32 361.96 C 974.84 345.54 983.81 330.14 997.10 320.09 Z" />
<path fill="#ffffff" d=" M 127.43 328.45 C 131.51 327.05 136.41 330.46 135.73 334.92 C 135.83 339.89 129.15 342.61 125.52 339.46 C 121.61 336.69 122.77 329.72 127.43 328.45 Z" />
<path fill="#000000" d=" M 596.25 332.46 C 602.94 332.46 609.64 332.44 616.34 332.47 C 610.29 348.73 603.49 364.72 597.08 380.85 C 603.25 375.32 610.37 370.40 618.63 368.76 C 623.92 367.82 629.90 368.23 634.22 371.75 C 638.44 375.07 639.89 380.91 639.08 386.06 C 637.43 397.65 632.18 408.27 627.96 419.08 C 624.43 428.20 620.21 437.08 617.40 446.46 C 616.44 450.57 614.74 455.17 616.84 459.19 C 618.27 461.43 621.35 460.95 623.55 460.40 C 629.43 458.22 633.78 453.43 637.99 448.99 C 645.29 440.74 651.39 431.51 657.10 422.12 C 658.26 419.97 660.90 418.95 661.46 416.43 C 666.84 401.39 674.91 386.67 687.63 376.62 C 697.17 369.08 710.78 365.68 722.26 370.62 C 729.96 373.87 734.63 381.87 735.52 389.96 C 737.13 408.10 730.64 425.76 723.06 441.92 C 732.73 443.58 741.61 437.62 747.66 430.64 C 751.53 426.80 753.57 421.47 757.95 418.12 C 764.42 402.41 770.94 386.67 776.97 370.78 C 771.12 370.70 765.27 370.78 759.42 370.73 C 760.73 367.26 762.19 363.84 763.56 360.39 C 769.48 360.34 775.40 360.36 781.32 360.38 C 785.22 351.14 788.86 341.78 792.62 332.47 C 799.39 332.44 806.17 332.44 812.95 332.48 C 809.33 341.79 805.37 350.97 801.87 360.33 C 807.51 360.41 813.16 360.32 818.81 360.39 C 817.38 363.82 815.97 367.25 814.62 370.71 C 809.10 370.86 803.58 370.59 798.07 370.82 C 797.81 371.12 797.30 371.72 797.04 372.02 C 789.52 390.48 782.11 409.00 774.64 427.49 C 771.78 434.71 768.54 441.83 766.73 449.41 C 766.16 452.39 765.75 455.55 766.59 458.52 C 768.02 461.59 771.99 460.97 774.71 460.43 C 780.23 458.69 784.76 454.83 788.89 450.90 C 797.49 442.25 804.44 432.14 810.74 421.75 C 811.76 419.78 814.15 418.87 814.77 416.67 C 819.38 403.81 825.87 391.33 835.50 381.49 C 843.19 373.66 853.76 367.88 865.00 368.35 C 873.59 368.25 882.43 372.77 886.18 380.72 C 890.89 390.32 889.48 401.42 887.36 411.52 C 885.15 422.17 881.01 432.26 876.41 442.08 C 882.94 442.87 889.52 440.72 894.64 436.68 C 900.79 432.23 905.04 425.82 909.20 419.61 C 912.74 418.96 915.63 422.44 917.74 424.94 C 911.02 436.93 901.25 448.38 887.74 452.66 C 881.77 454.68 875.41 454.39 869.32 453.18 C 862.64 461.96 854.02 469.99 843.08 472.82 C 833.67 475.12 822.34 474.07 815.51 466.49 C 809.84 460.42 808.92 451.77 808.67 443.85 C 800.90 454.51 791.83 464.92 779.71 470.69 C 773.49 473.74 766.33 474.53 759.54 473.35 C 754.45 472.36 749.79 468.82 748.25 463.75 C 746.35 457.63 747.24 451.04 748.51 444.89 C 741.54 450.40 733.00 454.38 723.96 454.19 C 721.18 454.16 718.43 453.13 715.66 453.46 C 708.94 462.33 700.10 470.34 689.01 472.99 C 680.30 474.86 670.06 474.16 663.34 467.67 C 656.78 461.74 655.20 452.37 655.46 443.94 C 648.31 453.78 640.45 463.65 629.75 469.80 C 622.80 473.86 614.05 475.19 606.39 472.50 C 601.17 470.65 597.78 465.44 597.31 460.05 C 596.13 448.41 600.29 437.17 604.52 426.55 C 608.69 416.05 613.15 405.67 617.00 395.05 C 617.68 392.41 619.43 389.15 617.29 386.76 C 615.01 384.57 611.47 385.11 608.72 385.89 C 601.85 388.24 595.98 392.82 591.01 398.00 C 589.94 399.04 589.18 400.33 588.63 401.71 C 579.20 424.96 569.87 448.25 560.32 471.45 C 553.59 471.40 546.86 471.50 540.14 471.39 C 558.73 425.04 577.53 378.76 596.25 332.46 Z" />
<path fill="#000000" d=" M 1327.68 332.49 C 1334.44 332.43 1341.22 332.43 1347.99 332.49 C 1344.40 341.81 1340.46 350.99 1336.92 360.32 C 1342.55 360.41 1348.20 360.33 1353.85 360.39 C 1352.45 363.82 1351.04 367.25 1349.69 370.71 C 1344.04 370.78 1338.38 370.77 1332.73 370.71 C 1324.53 390.32 1316.81 410.12 1308.77 429.80 C 1305.94 437.07 1302.56 444.25 1301.36 452.02 C 1301.15 454.87 1300.51 458.76 1303.48 460.45 C 1309.78 462.15 1315.61 458.02 1320.26 454.25 C 1329.11 446.66 1335.98 437.07 1342.33 427.36 C 1344.24 424.64 1345.45 421.32 1348.13 419.22 C 1349.16 418.52 1349.75 417.41 1350.22 416.28 C 1359.31 393.68 1368.47 371.11 1377.58 348.53 C 1379.98 343.24 1381.50 337.48 1384.43 332.49 C 1391.03 332.38 1397.64 332.48 1404.25 332.47 C 1398.10 348.70 1391.33 364.68 1384.98 380.83 C 1391.11 375.30 1398.22 370.40 1406.46 368.76 C 1411.78 367.83 1417.83 368.22 1422.15 371.83 C 1425.77 374.69 1427.33 379.50 1427.14 384.00 C 1426.51 391.46 1423.99 398.59 1421.30 405.52 C 1416.92 416.43 1412.42 427.29 1408.06 438.21 C 1406.02 443.61 1404.00 449.16 1403.71 454.98 C 1403.63 457.25 1404.47 460.61 1407.23 460.76 C 1412.20 461.36 1416.39 457.93 1419.96 454.94 C 1431.03 444.72 1439.03 431.76 1446.89 419.04 C 1450.01 420.19 1453.54 421.77 1454.85 425.10 C 1451.80 431.38 1447.75 437.14 1443.92 442.96 C 1438.27 451.12 1432.01 458.98 1424.28 465.27 C 1418.23 470.05 1410.93 474.05 1403.01 473.84 C 1397.54 474.08 1391.48 472.52 1388.11 467.92 C 1384.85 463.24 1384.34 457.18 1385.10 451.68 C 1386.70 438.24 1392.80 425.99 1397.64 413.53 C 1400.50 406.04 1404.02 398.74 1405.99 390.95 C 1407.08 388.25 1404.65 385.33 1401.90 385.30 C 1395.61 384.87 1390.09 388.71 1385.22 392.21 C 1381.86 395.13 1377.87 397.90 1376.26 402.23 C 1366.93 425.31 1357.62 448.40 1348.20 471.44 C 1341.47 471.41 1334.75 471.50 1328.03 471.38 C 1329.88 466.19 1332.18 461.17 1334.07 455.99 C 1327.81 462.31 1320.94 468.39 1312.53 471.65 C 1307.08 473.93 1301.00 474.27 1295.20 473.46 C 1289.93 472.63 1285.01 469.05 1283.36 463.87 C 1281.37 457.73 1282.30 451.11 1283.56 444.93 C 1275.65 451.13 1265.51 455.56 1255.31 453.78 C 1253.42 453.67 1250.82 452.41 1249.73 454.67 C 1241.75 465.18 1229.77 474.21 1215.99 473.83 C 1208.43 474.19 1200.59 471.15 1195.97 465.02 C 1190.71 458.23 1190.19 449.19 1190.70 440.94 C 1184.29 447.28 1176.36 452.58 1167.25 453.80 C 1162.80 454.76 1158.29 453.81 1153.88 453.16 C 1147.09 462.32 1137.95 470.52 1126.55 473.10 C 1118.40 474.67 1109.04 474.19 1102.43 468.61 C 1096.54 463.94 1093.94 456.30 1093.58 449.01 C 1093.19 440.04 1095.04 431.15 1097.49 422.57 C 1101.34 409.65 1107.13 397.14 1115.58 386.56 C 1122.20 378.47 1130.83 371.38 1141.26 369.13 C 1149.61 367.32 1159.22 368.31 1165.82 374.18 C 1171.91 379.58 1174.10 388.11 1173.82 396.00 C 1173.58 412.11 1167.88 427.54 1161.08 441.94 C 1167.42 442.96 1173.89 440.77 1178.92 436.93 C 1184.24 432.91 1188.51 427.68 1192.10 422.11 C 1193.32 419.98 1195.95 418.95 1196.54 416.44 C 1202.01 401.22 1210.18 386.24 1223.23 376.23 C 1232.91 368.78 1246.75 365.61 1258.11 370.99 C 1266.05 374.69 1270.37 383.48 1270.75 391.94 C 1271.63 409.42 1265.53 426.35 1258.10 441.89 C 1267.74 443.61 1276.64 437.65 1282.70 430.69 C 1286.57 426.79 1288.69 421.47 1293.05 418.03 C 1299.50 402.34 1306.03 386.66 1312.02 370.79 C 1306.19 370.70 1300.37 370.77 1294.55 370.74 C 1295.81 367.26 1297.23 363.84 1298.62 360.41 C 1304.52 360.33 1310.43 360.34 1316.34 360.40 C 1320.32 351.18 1323.89 341.79 1327.68 332.49 Z" />
<path fill="#ffffff" d=" M 250.43 378.47 C 255.20 377.02 260.20 382.17 258.22 386.87 C 256.71 391.62 249.42 392.34 246.94 388.07 C 244.43 384.73 246.59 379.57 250.43 378.47 Z" />
<path fill="#ffffff" d=" M 703.94 383.90 C 707.33 381.78 712.71 381.07 715.46 384.56 C 718.44 388.38 717.83 393.56 717.56 398.08 C 716.39 407.16 713.41 415.87 710.31 424.44 C 705.42 424.21 700.11 426.24 697.96 430.92 C 695.27 435.54 696.68 441.26 699.90 445.21 C 696.39 450.71 692.24 456.33 686.22 459.25 C 682.59 461.21 677.67 460.20 675.52 456.57 C 672.26 451.12 673.64 444.44 674.73 438.56 C 677.60 425.71 682.42 413.30 688.83 401.81 C 692.78 395.08 697.22 388.17 703.94 383.90 Z" />
<path fill="#ffffff" d=" M 849.74 390.74 C 853.59 386.11 859.06 380.97 865.62 382.40 C 870.31 383.93 871.47 389.63 871.31 393.97 C 870.75 404.52 867.26 414.63 863.68 424.48 C 860.37 424.49 856.81 424.94 854.28 427.29 C 849.90 430.82 848.78 437.60 851.59 442.41 C 852.12 443.71 853.63 445.08 852.47 446.49 C 848.96 451.84 844.70 457.37 838.50 459.66 C 834.51 461.39 829.54 459.17 828.12 455.08 C 825.44 447.97 827.79 440.31 829.42 433.24 C 833.76 418.12 839.90 403.15 849.74 390.74 Z" />
<path fill="#ffffff" d=" M 1135.00 389.99 C 1138.57 386.03 1143.14 381.65 1148.92 382.21 C 1153.34 382.34 1155.61 387.15 1155.73 391.05 C 1156.29 402.62 1152.08 413.70 1148.32 424.44 C 1142.91 424.09 1137.15 426.87 1135.37 432.25 C 1133.38 436.66 1135.22 441.39 1137.73 445.14 C 1135.80 449.38 1132.40 452.86 1129.07 456.07 C 1125.80 458.98 1120.91 461.62 1116.59 459.40 C 1111.92 456.82 1111.17 450.81 1111.61 446.01 C 1112.59 436.39 1115.62 427.11 1119.10 418.13 C 1123.16 408.14 1127.98 398.26 1135.00 389.99 Z" />
<path fill="#ffffff" d=" M 1232.03 390.00 C 1235.58 386.04 1240.15 381.68 1245.92 382.21 C 1250.32 382.30 1252.66 387.07 1252.74 390.96 C 1253.37 402.56 1249.14 413.68 1245.36 424.45 C 1240.46 424.21 1235.13 426.26 1233.00 430.95 C 1230.33 435.58 1231.75 441.26 1234.96 445.21 C 1232.00 450.00 1228.45 454.55 1223.84 457.84 C 1220.73 459.98 1216.32 461.33 1212.95 459.00 C 1208.84 456.12 1208.26 450.56 1208.65 445.96 C 1209.66 436.33 1212.67 427.04 1216.17 418.06 C 1220.22 408.10 1225.04 398.26 1232.03 390.00 Z" />
<path fill="#ffffff" d=" M 1025.06 394.53 C 1037.44 397.17 1050.42 402.31 1057.91 413.07 C 1066.12 424.99 1064.00 441.60 1056.11 453.13 C 1051.08 460.62 1041.97 464.97 1032.99 464.44 C 1020.68 463.91 1009.75 457.00 1000.64 449.20 C 1011.06 432.09 1017.55 413.00 1025.06 394.53 Z" />
<path fill="#ffffff" d=" M 942.46 453.72 C 941.01 446.57 948.15 440.22 954.98 440.44 C 963.13 440.55 969.87 445.83 976.31 450.22 C 971.18 456.31 964.20 461.72 955.97 462.21 C 950.44 462.26 943.96 459.51 942.46 453.72 Z" />
</svg>
